M48
; DRILL file {KiCad (5.1.6)-1} date 02/08/21 15:12:08
; FORMAT={-:-/ absolute / inch / decimal}
; #@! TF.CreationDate,2021-02-08T15:12:08+09:00
; #@! TF.GenerationSoftware,Kicad,Pcbnew,(5.1.6)-1
; #@! TF.FileFunction,Plated,1,2,PTH
FMAT,2
INCH
T1C0.0118
T2C0.0236
T3C0.0590
%
G90
G05
T1
X7.8546Y-6.7128
X8.8583Y-5.0022
X8.8939Y-4.4252
X9.0063Y-4.4254
X9.0433Y-4.0118
X9.0743Y-4.3954
X9.1103Y-4.0194
X9.1476Y-4.1732
X9.1614Y-5.9016
X9.2165Y-6.2953
X9.2323Y-6.6656
X9.2325Y-6.7128
X9.2403Y-4.1714
X9.2441Y-6.2953
X9.2719Y-6.2955
X9.2863Y-4.0194
X9.3343Y-4.4234
X9.4626Y-5.002
X9.4786Y-6.7128
X9.4803Y-6.6654
X9.6457Y-5.9016
X9.6634Y-5.0039
X9.8504Y-5.9016
X9.9097Y-6.6656
X9.9117Y-6.8211
X9.9845Y-7.1235
X10.0554Y-6.6144
X10.1656Y-7.3782
X10.2916Y-7.3073
X10.3664Y-6.6656
X10.3861Y-7.3782
X10.4333Y-6.8743
X10.4432Y-6.831
X10.5987Y-7.1499
X10.6656Y-6.7247
X10.7443Y-6.7247
X10.8349Y-7.0002
X11.3506Y-6.9727
T3
X8.475Y-5.525
X8.725Y-5.425
X14.6625Y-7.025
X14.9125Y-6.925
X13.9125Y-6.275
X14.1625Y-6.175
X9.975Y-5.525
X10.225Y-5.425
X10.35Y-6.275
X10.6Y-6.175
X11.85Y-6.275
X12.1Y-6.175
X9.7875Y-4.775
X10.0375Y-4.675
X3.6Y-4.775
X3.85Y-4.675
X13.9125Y-4.025
X14.1625Y-3.925
X10.9125Y-4.025
X11.1625Y-3.925
X7.1625Y-4.025
X7.4125Y-3.925
X10.5375Y-4.775
X10.7875Y-4.675
X4.5375Y-7.025
X4.7875Y-6.925
X4.5375Y-4.775
X4.7875Y-4.675
X8.85Y-6.275
X9.1Y-6.175
X11.2875Y-4.775
X11.5375Y-4.675
X3.6938Y-5.525
X3.9438Y-5.425
X9.0375Y-4.775
X9.2875Y-4.675
X13.1625Y-4.025
X13.4125Y-3.925
X14.6625Y-5.525
X14.9125Y-5.425
X4.9125Y-4.025
X5.1625Y-3.925
X13.9125Y-7.025
X14.1625Y-6.925
X13.725Y-4.775
X13.975Y-4.675
X7.725Y-5.525
X7.975Y-5.425
X13.4437Y-5.525
X13.6937Y-5.425
X9.225Y-5.525
X9.475Y-5.425
X5.85Y-6.275
X6.1Y-6.175
X12.8812Y-6.275
X13.1312Y-6.175
X6.4125Y-4.025
X6.6625Y-3.925
X9.4125Y-4.025
X9.6625Y-3.925
X11.85Y-7.025
X12.1Y-6.925
X7.35Y-6.275
X7.6Y-6.175
X4.725Y-5.525
X4.975Y-5.425
X6.0375Y-4.775
X6.2875Y-4.675
X11.1Y-6.275
X11.35Y-6.175
X5.475Y-5.525
X5.725Y-5.425
X8.1Y-6.275
X8.35Y-6.175
X14.6625Y-4.775
X14.9125Y-4.675
X5.475Y-7.025
X5.725Y-6.925
X5.6625Y-4.025
X5.9125Y-3.925
X3.6Y-7.025
X3.85Y-6.925
X5.1Y-6.275
X5.35Y-6.175
X6.225Y-5.525
X6.475Y-5.425
X12.225Y-5.525
X12.475Y-5.425
X9.6Y-6.275
X9.85Y-6.175
X6.975Y-5.525
X7.225Y-5.425
X12.4125Y-4.025
X12.6625Y-3.925
X10.1625Y-4.025
X10.4125Y-3.925
X14.6625Y-4.025
X14.9125Y-3.925
X5.2875Y-4.775
X5.5375Y-4.675
X13.5375Y-4.025
X13.7875Y-3.925
X12.7875Y-4.775
X13.0375Y-4.675
X13.1625Y-7.025
X13.4125Y-6.925
X6.6Y-6.275
X6.85Y-6.175
X3.5063Y-5.525
X3.7563Y-5.425
X10.725Y-5.525
X10.975Y-5.425
X8.2875Y-4.775
X8.5375Y-4.675
X6.7875Y-4.775
X7.0375Y-4.675
X8.6625Y-4.025
X8.9125Y-3.925
X3.4125Y-4.025
X3.6625Y-3.925
X11.6625Y-4.025
X11.9125Y-3.925
X14.6625Y-6.275
X14.9125Y-6.175
X8.6625Y-7.025
X8.9125Y-6.925
X11.475Y-5.525
X11.725Y-5.425
X7.5375Y-4.775
X7.7875Y-4.675
X3.8813Y-6.275
X4.1312Y-6.175
X12.0375Y-4.775
X12.2875Y-4.675
X7.9125Y-4.025
X8.1625Y-3.925
X4.1625Y-4.025
X4.4125Y-3.925
T2
G00X9.0189Y-3.7148
M15
G01X9.0189Y-3.7384
M16
G05
G00X9.0189Y-3.8695
M15
G01X9.0189Y-3.9128
M16
G05
G00X9.3591Y-3.7148
M15
G01X9.3591Y-3.7384
M16
G05
G00X9.3591Y-3.8695
M15
G01X9.3591Y-3.9128
M16
G05
T0
M30
