%TF.GenerationSoftware,KiCad,Pcbnew,(5.1.8)-1*%
%TF.CreationDate,2020-12-06T22:59:07+09:00*%
%TF.ProjectId,Kyuu,4b797575-2e6b-4696-9361-645f70636258,rev?*%
%TF.SameCoordinates,Original*%
%TF.FileFunction,Soldermask,Top*%
%TF.FilePolarity,Negative*%
%FSLAX46Y46*%
G04 Gerber Fmt 4.6, Leading zero omitted, Abs format (unit mm)*
G04 Created by KiCad (PCBNEW (5.1.8)-1) date 2020-12-06 22:59:07*
%MOMM*%
%LPD*%
G01*
G04 APERTURE LIST*
%ADD10C,0.670000*%
%ADD11O,1.020000X2.120000*%
%ADD12O,1.020000X1.620000*%
%ADD13C,2.306000*%
G04 APERTURE END LIST*
D10*
%TO.C,USB1*%
X236290000Y-98305000D03*
X230510000Y-98305000D03*
D11*
X229080000Y-98835000D03*
X237720000Y-98835000D03*
D12*
X229080000Y-94655000D03*
X237720000Y-94655000D03*
%TD*%
D13*
%TO.C,K42*%
X378777500Y-99695000D03*
X372427500Y-102235000D03*
%TD*%
%TO.C,K35*%
X221615000Y-137795000D03*
X215265000Y-140335000D03*
%TD*%
%TO.C,K59*%
X145415000Y-175895000D03*
X139065000Y-178435000D03*
%TD*%
%TO.C,K42*%
X378777500Y-137795000D03*
X372427500Y-140335000D03*
%TD*%
%TO.C,K17*%
X140652500Y-118745000D03*
X134302500Y-121285000D03*
%TD*%
%TO.C,K24*%
X274002500Y-118745000D03*
X267652500Y-121285000D03*
%TD*%
%TO.C,K2*%
X131127500Y-99695000D03*
X124777500Y-102235000D03*
%TD*%
%TO.C,K0*%
X93027500Y-99695000D03*
X86677500Y-102235000D03*
%TD*%
%TO.C,K1*%
X112077500Y-99695000D03*
X105727500Y-102235000D03*
%TD*%
%TO.C,K3*%
X150177500Y-99695000D03*
X143827500Y-102235000D03*
%TD*%
%TO.C,K4*%
X169227500Y-99695000D03*
X162877500Y-102235000D03*
%TD*%
%TO.C,K5*%
X188277500Y-99695000D03*
X181927500Y-102235000D03*
%TD*%
%TO.C,K6*%
X207327500Y-99695000D03*
X200977500Y-102235000D03*
%TD*%
%TO.C,K7*%
X226377500Y-99695000D03*
X220027500Y-102235000D03*
%TD*%
%TO.C,K8*%
X245427500Y-99695000D03*
X239077500Y-102235000D03*
%TD*%
%TO.C,K9*%
X264477500Y-99695000D03*
X258127500Y-102235000D03*
%TD*%
%TO.C,K10*%
X283527500Y-99695000D03*
X277177500Y-102235000D03*
%TD*%
%TO.C,K11*%
X302577500Y-99695000D03*
X296227500Y-102235000D03*
%TD*%
%TO.C,K12*%
X321627500Y-99695000D03*
X315277500Y-102235000D03*
%TD*%
%TO.C,K13*%
X350202500Y-99695000D03*
X343852500Y-102235000D03*
%TD*%
%TO.C,K13_1*%
X340677500Y-99695000D03*
X334327500Y-102235000D03*
%TD*%
%TO.C,K14*%
X359727500Y-99695000D03*
X353377500Y-102235000D03*
%TD*%
%TO.C,K15*%
X97790000Y-118745000D03*
X91440000Y-121285000D03*
%TD*%
%TO.C,K16*%
X121602500Y-118745000D03*
X115252500Y-121285000D03*
%TD*%
%TO.C,K18*%
X159702500Y-118745000D03*
X153352500Y-121285000D03*
%TD*%
%TO.C,K19*%
X178752500Y-118745000D03*
X172402500Y-121285000D03*
%TD*%
%TO.C,K20*%
X197802500Y-118745000D03*
X191452500Y-121285000D03*
%TD*%
%TO.C,K21*%
X216852500Y-118745000D03*
X210502500Y-121285000D03*
%TD*%
%TO.C,K22*%
X235902500Y-118745000D03*
X229552500Y-121285000D03*
%TD*%
%TO.C,K23*%
X254952500Y-118745000D03*
X248602500Y-121285000D03*
%TD*%
%TO.C,K25*%
X293052500Y-118745000D03*
X286702500Y-121285000D03*
%TD*%
%TO.C,K26*%
X312102500Y-118745000D03*
X305752500Y-121285000D03*
%TD*%
%TO.C,K29*%
X100171250Y-137795000D03*
X93821250Y-140335000D03*
%TD*%
%TO.C,K29_1*%
X95408750Y-137795000D03*
X89058750Y-140335000D03*
%TD*%
%TO.C,K30*%
X126365000Y-137795000D03*
X120015000Y-140335000D03*
%TD*%
%TO.C,K31*%
X145415000Y-137795000D03*
X139065000Y-140335000D03*
%TD*%
%TO.C,K32*%
X164465000Y-137795000D03*
X158115000Y-140335000D03*
%TD*%
%TO.C,K33*%
X183515000Y-137795000D03*
X177165000Y-140335000D03*
%TD*%
%TO.C,K34*%
X202565000Y-137795000D03*
X196215000Y-140335000D03*
%TD*%
%TO.C,K36*%
X240665000Y-137795000D03*
X234315000Y-140335000D03*
%TD*%
%TO.C,K37*%
X259715000Y-137795000D03*
X253365000Y-140335000D03*
%TD*%
%TO.C,K38*%
X278765000Y-137795000D03*
X272415000Y-140335000D03*
%TD*%
%TO.C,K39*%
X297815000Y-137795000D03*
X291465000Y-140335000D03*
%TD*%
%TO.C,K40*%
X316865000Y-137795000D03*
X310515000Y-140335000D03*
%TD*%
%TO.C,K41*%
X347821250Y-137795000D03*
X341471250Y-140335000D03*
%TD*%
%TO.C,K44*%
X135890000Y-156845000D03*
X129540000Y-159385000D03*
%TD*%
%TO.C,K45*%
X154940000Y-156845000D03*
X148590000Y-159385000D03*
%TD*%
%TO.C,K46*%
X173990000Y-156845000D03*
X167640000Y-159385000D03*
%TD*%
%TO.C,K47*%
X193040000Y-156845000D03*
X186690000Y-159385000D03*
%TD*%
%TO.C,K48*%
X212090000Y-156845000D03*
X205740000Y-159385000D03*
%TD*%
%TO.C,K49*%
X231140000Y-156845000D03*
X224790000Y-159385000D03*
%TD*%
%TO.C,K50*%
X250190000Y-156845000D03*
X243840000Y-159385000D03*
%TD*%
%TO.C,K51*%
X269240000Y-156845000D03*
X262890000Y-159385000D03*
%TD*%
%TO.C,K52*%
X288290000Y-156845000D03*
X281940000Y-159385000D03*
%TD*%
%TO.C,K53*%
X307340000Y-156845000D03*
X300990000Y-159385000D03*
%TD*%
%TO.C,K54*%
X333533750Y-156845000D03*
X327183750Y-159385000D03*
%TD*%
%TO.C,K55*%
X359727500Y-156845000D03*
X353377500Y-159385000D03*
%TD*%
%TO.C,K62*%
X340677500Y-175895000D03*
X334327500Y-178435000D03*
%TD*%
%TO.C,K63*%
X359727500Y-175895000D03*
X353377500Y-178435000D03*
%TD*%
%TO.C,K64*%
X378777500Y-175895000D03*
X372427500Y-178435000D03*
%TD*%
%TO.C,SW1*%
G36*
G01*
X189827500Y-179575000D02*
X189827500Y-178575000D01*
G75*
G02*
X189837500Y-178565000I10000J0D01*
G01*
X191537500Y-178565000D01*
G75*
G02*
X191547500Y-178575000I0J-10000D01*
G01*
X191547500Y-179575000D01*
G75*
G02*
X191537500Y-179585000I-10000J0D01*
G01*
X189837500Y-179585000D01*
G75*
G02*
X189827500Y-179575000I0J10000D01*
G01*
G37*
G36*
G01*
X196127500Y-179575000D02*
X196127500Y-178575000D01*
G75*
G02*
X196137500Y-178565000I10000J0D01*
G01*
X197837500Y-178565000D01*
G75*
G02*
X197847500Y-178575000I0J-10000D01*
G01*
X197847500Y-179575000D01*
G75*
G02*
X197837500Y-179585000I-10000J0D01*
G01*
X196137500Y-179585000D01*
G75*
G02*
X196127500Y-179575000I0J10000D01*
G01*
G37*
G36*
G01*
X189827500Y-183375000D02*
X189827500Y-182375000D01*
G75*
G02*
X189837500Y-182365000I10000J0D01*
G01*
X191537500Y-182365000D01*
G75*
G02*
X191547500Y-182375000I0J-10000D01*
G01*
X191547500Y-183375000D01*
G75*
G02*
X191537500Y-183385000I-10000J0D01*
G01*
X189837500Y-183385000D01*
G75*
G02*
X189827500Y-183375000I0J10000D01*
G01*
G37*
G36*
G01*
X196127500Y-183375000D02*
X196127500Y-182375000D01*
G75*
G02*
X196137500Y-182365000I10000J0D01*
G01*
X197837500Y-182365000D01*
G75*
G02*
X197847500Y-182375000I0J-10000D01*
G01*
X197847500Y-183375000D01*
G75*
G02*
X197837500Y-183385000I-10000J0D01*
G01*
X196137500Y-183385000D01*
G75*
G02*
X196127500Y-183375000I0J10000D01*
G01*
G37*
%TD*%
%TO.C,KOOPS1*%
X378777500Y-118745000D03*
X372427500Y-121285000D03*
%TD*%
%TO.C,K27*%
X331152500Y-118745000D03*
X324802500Y-121285000D03*
%TD*%
%TO.C,K28*%
X354965000Y-118745000D03*
X348615000Y-121285000D03*
%TD*%
%TO.C,K56*%
X378777500Y-156845000D03*
X372427500Y-159385000D03*
%TD*%
%TO.C,K57*%
X97790000Y-175895000D03*
X91440000Y-178435000D03*
%TD*%
%TO.C,K58*%
X121602500Y-175895000D03*
X115252500Y-178435000D03*
%TD*%
%TO.C,K61*%
X307340000Y-175895000D03*
X300990000Y-178435000D03*
%TD*%
%TO.C,K60*%
X226377500Y-175895000D03*
X220027500Y-178435000D03*
%TD*%
%TO.C,K43*%
X104933750Y-156845000D03*
X98583750Y-159385000D03*
%TD*%
M02*
