M48
; DRILL file {KiCad (5.1.8)-1} date 12/06/20 22:59:09
; FORMAT={-:-/ absolute / inch / decimal}
; #@! TF.CreationDate,2020-12-06T22:59:09+09:00
; #@! TF.GenerationSoftware,Kicad,Pcbnew,(5.1.8)-1
; #@! TF.FileFunction,NonPlated,1,2,NPTH
FMAT,2
INCH
T1C0.0256
T2C0.0670
T3C0.1200
T4C0.1570
%
G90
G05
T1
X9.0752Y-3.8703
X9.3028Y-3.8703
T2
X5.6125Y-4.125
X6.0125Y-4.125
X7.3Y-6.375
X7.7Y-6.375
X8.9875Y-4.875
X9.3875Y-4.875
X8.05Y-6.375
X8.45Y-6.375
X11.9875Y-4.875
X12.3875Y-4.875
X12.175Y-5.625
X12.575Y-5.625
X14.6125Y-5.625
X15.0125Y-5.625
X5.9875Y-4.875
X6.3875Y-4.875
X14.6125Y-4.125
X15.0125Y-4.125
X14.6125Y-4.875
X15.0125Y-4.875
X8.6125Y-4.125
X9.0125Y-4.125
X14.6125Y-7.125
X15.0125Y-7.125
X12.3625Y-4.125
X12.7625Y-4.125
X13.8625Y-7.125
X14.2625Y-7.125
X10.8625Y-4.125
X11.2625Y-4.125
X11.8Y-6.375
X12.2Y-6.375
X13.8625Y-4.125
X14.2625Y-4.125
X5.05Y-6.375
X5.45Y-6.375
X6.175Y-5.625
X6.575Y-5.625
X11.425Y-5.625
X11.825Y-5.625
X4.4875Y-4.875
X4.8875Y-4.875
X12.8312Y-6.375
X13.2312Y-6.375
X13.675Y-4.875
X14.075Y-4.875
X7.1125Y-4.125
X7.5125Y-4.125
X13.1125Y-7.125
X13.5125Y-7.125
X10.1125Y-4.125
X10.5125Y-4.125
X9.55Y-6.375
X9.95Y-6.375
X6.7375Y-4.875
X7.1375Y-4.875
X13.3937Y-5.625
X13.7937Y-5.625
X9.7375Y-4.875
X10.1375Y-4.875
X10.675Y-5.625
X11.075Y-5.625
X7.8625Y-4.125
X8.2625Y-4.125
X11.6125Y-4.125
X12.0125Y-4.125
X11.05Y-6.375
X11.45Y-6.375
X13.4875Y-4.125
X13.8875Y-4.125
X6.925Y-5.625
X7.325Y-5.625
X10.4875Y-4.875
X10.8875Y-4.875
X5.425Y-5.625
X5.825Y-5.625
X4.4875Y-7.125
X4.8875Y-7.125
X10.3Y-6.375
X10.7Y-6.375
X7.4875Y-4.875
X7.8875Y-4.875
X9.175Y-5.625
X9.575Y-5.625
X5.2375Y-4.875
X5.6375Y-4.875
X3.6437Y-5.625
X4.0438Y-5.625
X8.6125Y-7.125
X9.0125Y-7.125
X6.3625Y-4.125
X6.7625Y-4.125
X3.55Y-4.875
X3.95Y-4.875
X9.925Y-5.625
X10.325Y-5.625
X13.1125Y-4.125
X13.5125Y-4.125
X6.55Y-6.375
X6.95Y-6.375
X5.425Y-7.125
X5.825Y-7.125
X3.4562Y-5.625
X3.8562Y-5.625
X8.425Y-5.625
X8.825Y-5.625
X13.8625Y-6.375
X14.2625Y-6.375
X3.55Y-7.125
X3.95Y-7.125
X4.1125Y-4.125
X4.5125Y-4.125
X14.6125Y-6.375
X15.0125Y-6.375
X7.675Y-5.625
X8.075Y-5.625
X8.2375Y-4.875
X8.6375Y-4.875
X8.8Y-6.375
X9.2Y-6.375
X4.675Y-5.625
X5.075Y-5.625
X5.8Y-6.375
X6.2Y-6.375
X11.2375Y-4.875
X11.6375Y-4.875
X4.8625Y-4.125
X5.2625Y-4.125
X12.7375Y-4.875
X13.1375Y-4.875
X11.8Y-7.125
X12.2Y-7.125
X9.3625Y-4.125
X9.7625Y-4.125
X3.3625Y-4.125
X3.7625Y-4.125
X3.8312Y-6.375
X4.2313Y-6.375
T3
X3.5612Y-6.65
X4.5012Y-6.65
X13.1237Y-5.35
X14.0637Y-5.35
X13.2175Y-3.85
X14.1575Y-3.85
X6.5625Y-7.4
X11.0625Y-7.4
T4
X10.6875Y-4.875
X5.625Y-5.625
X4.6875Y-7.125
X10.5Y-6.375
X7.6875Y-4.875
X9.375Y-5.625
X5.4375Y-4.875
X3.8438Y-5.625
X6.5625Y-6.8
X8.8125Y-7.125
X11.0625Y-6.8
X6.5625Y-4.125
X3.75Y-4.875
X10.125Y-5.625
X13.3125Y-4.125
X6.75Y-6.375
X5.625Y-7.125
X3.6562Y-5.625
X8.625Y-5.625
X14.0625Y-6.375
X3.75Y-7.125
X4.3125Y-4.125
X14.8125Y-6.375
X7.875Y-5.625
X8.4375Y-4.875
X9.0Y-6.375
X4.875Y-5.625
X6.0Y-6.375
X11.4375Y-4.875
X5.0625Y-4.125
X12.9375Y-4.875
X12.0Y-7.125
X9.5625Y-4.125
X3.5625Y-4.125
X3.5612Y-6.05
X4.0312Y-6.375
X4.5012Y-6.05
X5.8125Y-4.125
X7.5Y-6.375
X9.1875Y-4.875
X8.25Y-6.375
X12.1875Y-4.875
X12.375Y-5.625
X14.8125Y-5.625
X6.1875Y-4.875
X14.8125Y-4.125
X14.8125Y-4.875
X8.8125Y-4.125
X14.8125Y-7.125
X12.5625Y-4.125
X14.0625Y-7.125
X11.0625Y-4.125
X12.0Y-6.375
X14.0625Y-4.125
X5.25Y-6.375
X6.375Y-5.625
X11.625Y-5.625
X4.6875Y-4.875
X13.0312Y-6.375
X13.875Y-4.875
X7.3125Y-4.125
X13.3125Y-7.125
X10.3125Y-4.125
X9.75Y-6.375
X6.9375Y-4.875
X13.1237Y-5.95
X13.5938Y-5.625
X14.0637Y-5.95
X9.9375Y-4.875
X10.875Y-5.625
X8.0625Y-4.125
X11.8125Y-4.125
X11.25Y-6.375
X13.2175Y-4.45
X13.6875Y-4.125
X14.1575Y-4.45
X7.125Y-5.625
T0
M30
