%TF.GenerationSoftware,KiCad,Pcbnew,(5.1.6)-1*%
%TF.CreationDate,2021-02-08T15:12:05+09:00*%
%TF.ProjectId,Kyuu,4b797575-2e6b-4696-9361-645f70636258,rev?*%
%TF.SameCoordinates,Original*%
%TF.FileFunction,Legend,Bot*%
%TF.FilePolarity,Positive*%
%FSLAX46Y46*%
G04 Gerber Fmt 4.6, Leading zero omitted, Abs format (unit mm)*
G04 Created by KiCad (PCBNEW (5.1.6)-1) date 2021-02-08 15:12:05*
%MOMM*%
%LPD*%
G01*
G04 APERTURE LIST*
%ADD10C,0.120000*%
%ADD11C,0.150000*%
%ADD12C,0.200000*%
G04 APERTURE END LIST*
D10*
%TO.C,U2*%
X232430800Y-110033200D02*
X234230800Y-110033200D01*
X234230800Y-113253200D02*
X231280800Y-113253200D01*
%TO.C,F1*%
X232779536Y-109556000D02*
X233983664Y-109556000D01*
X232779536Y-107736000D02*
X233983664Y-107736000D01*
%TO.C,D44*%
X373662500Y-111150000D02*
X371662500Y-111150000D01*
X371662500Y-111150000D02*
X371662500Y-107250000D01*
X373662500Y-111150000D02*
X373662500Y-107250000D01*
%TO.C,C1*%
X248306250Y-175206250D02*
X248306250Y-174506250D01*
X247106250Y-174506250D02*
X247106250Y-175206250D01*
%TO.C,C2*%
X247106250Y-181806250D02*
X247106250Y-182506250D01*
X248306250Y-182506250D02*
X248306250Y-181806250D01*
%TO.C,C3*%
X261406250Y-187306250D02*
X260706250Y-187306250D01*
X260706250Y-188506250D02*
X261406250Y-188506250D01*
%TO.C,C4*%
X261006250Y-168706250D02*
X260306250Y-168706250D01*
X260306250Y-169906250D02*
X261006250Y-169906250D01*
%TO.C,C5*%
X251006250Y-168906250D02*
X251706250Y-168906250D01*
X251706250Y-167706250D02*
X251006250Y-167706250D01*
%TO.C,C6*%
X258906250Y-168306250D02*
X258906250Y-167606250D01*
X257706250Y-167606250D02*
X257706250Y-168306250D01*
%TO.C,C7*%
X271556250Y-176506250D02*
X272256250Y-176506250D01*
X272256250Y-175306250D02*
X271556250Y-175306250D01*
%TO.C,C8*%
X272256250Y-181306250D02*
X271556250Y-181306250D01*
X271556250Y-182506250D02*
X272256250Y-182506250D01*
%TO.C,R1*%
X231036250Y-105406250D02*
X231036250Y-104406250D01*
X229676250Y-104406250D02*
X229676250Y-105406250D01*
%TO.C,R2*%
X236296800Y-105386800D02*
X236296800Y-104386800D01*
X234936800Y-104386800D02*
X234936800Y-105386800D01*
%TO.C,R3*%
X254880000Y-168400000D02*
X254880000Y-167400000D01*
X253520000Y-167400000D02*
X253520000Y-168400000D01*
%TO.C,R4*%
X257280000Y-168400000D02*
X257280000Y-167400000D01*
X255920000Y-167400000D02*
X255920000Y-168400000D01*
%TO.C,R5*%
X266020000Y-174612500D02*
X266020000Y-175612500D01*
X267380000Y-175612500D02*
X267380000Y-174612500D01*
%TO.C,R6*%
X246880000Y-182700000D02*
X246880000Y-181700000D01*
X245520000Y-181700000D02*
X245520000Y-182700000D01*
D11*
%TO.C,U1*%
X252225000Y-173418750D02*
X252800000Y-173418750D01*
X252225000Y-183768750D02*
X252900000Y-183768750D01*
X262575000Y-183768750D02*
X261900000Y-183768750D01*
X262575000Y-173418750D02*
X261900000Y-173418750D01*
X252225000Y-173418750D02*
X252225000Y-174093750D01*
X262575000Y-173418750D02*
X262575000Y-174093750D01*
X262575000Y-183768750D02*
X262575000Y-183093750D01*
X252225000Y-183768750D02*
X252225000Y-183093750D01*
X252800000Y-173418750D02*
X252800000Y-172143750D01*
D12*
%TO.C,X1*%
X269731250Y-176831250D02*
X269731250Y-180581250D01*
X269731250Y-180581250D02*
X274481250Y-180581250D01*
X274481250Y-180581250D02*
X274481250Y-176831250D01*
X274481250Y-176831250D02*
X269731250Y-176831250D01*
D10*
%TO.C,D1*%
X87915698Y-109406340D02*
X85915698Y-109406340D01*
X85915698Y-109406340D02*
X85915698Y-105506340D01*
X87915698Y-109406340D02*
X87915698Y-105506340D01*
%TO.C,D2*%
X106965714Y-109406340D02*
X104965714Y-109406340D01*
X104965714Y-109406340D02*
X104965714Y-105506340D01*
X106965714Y-109406340D02*
X106965714Y-105506340D01*
%TO.C,D3*%
X126015625Y-109406250D02*
X124015625Y-109406250D01*
X124015625Y-109406250D02*
X124015625Y-105506250D01*
X126015625Y-109406250D02*
X126015625Y-105506250D01*
%TO.C,D4*%
X145065625Y-109406250D02*
X143065625Y-109406250D01*
X143065625Y-109406250D02*
X143065625Y-105506250D01*
X145065625Y-109406250D02*
X145065625Y-105506250D01*
%TO.C,D5*%
X164115625Y-109406250D02*
X162115625Y-109406250D01*
X162115625Y-109406250D02*
X162115625Y-105506250D01*
X164115625Y-109406250D02*
X164115625Y-105506250D01*
%TO.C,D6*%
X183165625Y-109406250D02*
X181165625Y-109406250D01*
X181165625Y-109406250D02*
X181165625Y-105506250D01*
X183165625Y-109406250D02*
X183165625Y-105506250D01*
%TO.C,D7*%
X202215625Y-109406250D02*
X200215625Y-109406250D01*
X200215625Y-109406250D02*
X200215625Y-105506250D01*
X202215625Y-109406250D02*
X202215625Y-105506250D01*
%TO.C,D8*%
X221265625Y-109406250D02*
X219265625Y-109406250D01*
X219265625Y-109406250D02*
X219265625Y-105506250D01*
X221265625Y-109406250D02*
X221265625Y-105506250D01*
%TO.C,D9*%
X240315625Y-109406250D02*
X238315625Y-109406250D01*
X238315625Y-109406250D02*
X238315625Y-105506250D01*
X240315625Y-109406250D02*
X240315625Y-105506250D01*
%TO.C,D10*%
X259365625Y-109406250D02*
X257365625Y-109406250D01*
X257365625Y-109406250D02*
X257365625Y-105506250D01*
X259365625Y-109406250D02*
X259365625Y-105506250D01*
%TO.C,D11*%
X278415625Y-109406250D02*
X276415625Y-109406250D01*
X276415625Y-109406250D02*
X276415625Y-105506250D01*
X278415625Y-109406250D02*
X278415625Y-105506250D01*
%TO.C,D12*%
X297465625Y-109406250D02*
X295465625Y-109406250D01*
X295465625Y-109406250D02*
X295465625Y-105506250D01*
X297465625Y-109406250D02*
X297465625Y-105506250D01*
%TO.C,D13*%
X316515625Y-109406250D02*
X314515625Y-109406250D01*
X314515625Y-109406250D02*
X314515625Y-105506250D01*
X316515625Y-109406250D02*
X316515625Y-105506250D01*
%TO.C,D14*%
X335565625Y-109406250D02*
X333565625Y-109406250D01*
X333565625Y-109406250D02*
X333565625Y-105506250D01*
X335565625Y-109406250D02*
X335565625Y-105506250D01*
%TO.C,D15*%
X354615625Y-109406250D02*
X352615625Y-109406250D01*
X352615625Y-109406250D02*
X352615625Y-105506250D01*
X354615625Y-109406250D02*
X354615625Y-105506250D01*
%TO.C,D16*%
X92678125Y-128456250D02*
X90678125Y-128456250D01*
X90678125Y-128456250D02*
X90678125Y-124556250D01*
X92678125Y-128456250D02*
X92678125Y-124556250D01*
%TO.C,D17*%
X116490625Y-128456250D02*
X114490625Y-128456250D01*
X114490625Y-128456250D02*
X114490625Y-124556250D01*
X116490625Y-128456250D02*
X116490625Y-124556250D01*
%TO.C,D18*%
X135540625Y-128456250D02*
X133540625Y-128456250D01*
X133540625Y-128456250D02*
X133540625Y-124556250D01*
X135540625Y-128456250D02*
X135540625Y-124556250D01*
%TO.C,D19*%
X154590625Y-128456250D02*
X152590625Y-128456250D01*
X152590625Y-128456250D02*
X152590625Y-124556250D01*
X154590625Y-128456250D02*
X154590625Y-124556250D01*
%TO.C,D20*%
X173640625Y-128456250D02*
X171640625Y-128456250D01*
X171640625Y-128456250D02*
X171640625Y-124556250D01*
X173640625Y-128456250D02*
X173640625Y-124556250D01*
%TO.C,D21*%
X192690625Y-128456250D02*
X190690625Y-128456250D01*
X190690625Y-128456250D02*
X190690625Y-124556250D01*
X192690625Y-128456250D02*
X192690625Y-124556250D01*
%TO.C,D22*%
X211740625Y-128456250D02*
X209740625Y-128456250D01*
X209740625Y-128456250D02*
X209740625Y-124556250D01*
X211740625Y-128456250D02*
X211740625Y-124556250D01*
%TO.C,D23*%
X230790625Y-128456250D02*
X228790625Y-128456250D01*
X228790625Y-128456250D02*
X228790625Y-124556250D01*
X230790625Y-128456250D02*
X230790625Y-124556250D01*
%TO.C,D24*%
X249840625Y-128456250D02*
X247840625Y-128456250D01*
X247840625Y-128456250D02*
X247840625Y-124556250D01*
X249840625Y-128456250D02*
X249840625Y-124556250D01*
%TO.C,D25*%
X268890625Y-128456250D02*
X266890625Y-128456250D01*
X266890625Y-128456250D02*
X266890625Y-124556250D01*
X268890625Y-128456250D02*
X268890625Y-124556250D01*
%TO.C,D26*%
X287940625Y-128456250D02*
X285940625Y-128456250D01*
X285940625Y-128456250D02*
X285940625Y-124556250D01*
X287940625Y-128456250D02*
X287940625Y-124556250D01*
%TO.C,D27*%
X306990625Y-128456250D02*
X304990625Y-128456250D01*
X304990625Y-128456250D02*
X304990625Y-124556250D01*
X306990625Y-128456250D02*
X306990625Y-124556250D01*
%TO.C,D28*%
X326040625Y-128456250D02*
X324040625Y-128456250D01*
X324040625Y-128456250D02*
X324040625Y-124556250D01*
X326040625Y-128456250D02*
X326040625Y-124556250D01*
%TO.C,D29*%
X349853125Y-128456250D02*
X347853125Y-128456250D01*
X347853125Y-128456250D02*
X347853125Y-124556250D01*
X349853125Y-128456250D02*
X349853125Y-124556250D01*
%TO.C,D30*%
X373665625Y-128456250D02*
X371665625Y-128456250D01*
X371665625Y-128456250D02*
X371665625Y-124556250D01*
X373665625Y-128456250D02*
X373665625Y-124556250D01*
%TO.C,D31*%
X90296875Y-147506250D02*
X88296875Y-147506250D01*
X88296875Y-147506250D02*
X88296875Y-143606250D01*
X90296875Y-147506250D02*
X90296875Y-143606250D01*
%TO.C,D32*%
X121253125Y-147506250D02*
X119253125Y-147506250D01*
X119253125Y-147506250D02*
X119253125Y-143606250D01*
X121253125Y-147506250D02*
X121253125Y-143606250D01*
%TO.C,D33*%
X140303125Y-147506250D02*
X138303125Y-147506250D01*
X138303125Y-147506250D02*
X138303125Y-143606250D01*
X140303125Y-147506250D02*
X140303125Y-143606250D01*
%TO.C,D34*%
X159353125Y-147506250D02*
X157353125Y-147506250D01*
X157353125Y-147506250D02*
X157353125Y-143606250D01*
X159353125Y-147506250D02*
X159353125Y-143606250D01*
%TO.C,D35*%
X178403125Y-147506250D02*
X176403125Y-147506250D01*
X176403125Y-147506250D02*
X176403125Y-143606250D01*
X178403125Y-147506250D02*
X178403125Y-143606250D01*
%TO.C,D36*%
X197453125Y-147506250D02*
X195453125Y-147506250D01*
X195453125Y-147506250D02*
X195453125Y-143606250D01*
X197453125Y-147506250D02*
X197453125Y-143606250D01*
%TO.C,D37*%
X216503125Y-147506250D02*
X214503125Y-147506250D01*
X214503125Y-147506250D02*
X214503125Y-143606250D01*
X216503125Y-147506250D02*
X216503125Y-143606250D01*
%TO.C,D38*%
X235553125Y-147506250D02*
X233553125Y-147506250D01*
X233553125Y-147506250D02*
X233553125Y-143606250D01*
X235553125Y-147506250D02*
X235553125Y-143606250D01*
%TO.C,D39*%
X254603125Y-147506250D02*
X252603125Y-147506250D01*
X252603125Y-147506250D02*
X252603125Y-143606250D01*
X254603125Y-147506250D02*
X254603125Y-143606250D01*
%TO.C,D40*%
X273653125Y-147506250D02*
X271653125Y-147506250D01*
X271653125Y-147506250D02*
X271653125Y-143606250D01*
X273653125Y-147506250D02*
X273653125Y-143606250D01*
%TO.C,D41*%
X292703125Y-147506250D02*
X290703125Y-147506250D01*
X290703125Y-147506250D02*
X290703125Y-143606250D01*
X292703125Y-147506250D02*
X292703125Y-143606250D01*
%TO.C,D42*%
X311753125Y-147506250D02*
X309753125Y-147506250D01*
X309753125Y-147506250D02*
X309753125Y-143606250D01*
X311753125Y-147506250D02*
X311753125Y-143606250D01*
%TO.C,D43*%
X342709375Y-147506250D02*
X340709375Y-147506250D01*
X340709375Y-147506250D02*
X340709375Y-143606250D01*
X342709375Y-147506250D02*
X342709375Y-143606250D01*
%TO.C,D44*%
X373665625Y-147506250D02*
X371665625Y-147506250D01*
X371665625Y-147506250D02*
X371665625Y-143606250D01*
X373665625Y-147506250D02*
X373665625Y-143606250D01*
%TO.C,D45*%
X99821875Y-166556250D02*
X97821875Y-166556250D01*
X97821875Y-166556250D02*
X97821875Y-162656250D01*
X99821875Y-166556250D02*
X99821875Y-162656250D01*
%TO.C,D46*%
X130778125Y-166556250D02*
X128778125Y-166556250D01*
X128778125Y-166556250D02*
X128778125Y-162656250D01*
X130778125Y-166556250D02*
X130778125Y-162656250D01*
%TO.C,D47*%
X149828125Y-166556250D02*
X147828125Y-166556250D01*
X147828125Y-166556250D02*
X147828125Y-162656250D01*
X149828125Y-166556250D02*
X149828125Y-162656250D01*
%TO.C,D48*%
X168878125Y-166556250D02*
X166878125Y-166556250D01*
X166878125Y-166556250D02*
X166878125Y-162656250D01*
X168878125Y-166556250D02*
X168878125Y-162656250D01*
%TO.C,D49*%
X187928125Y-166556250D02*
X185928125Y-166556250D01*
X185928125Y-166556250D02*
X185928125Y-162656250D01*
X187928125Y-166556250D02*
X187928125Y-162656250D01*
%TO.C,D50*%
X206978125Y-166556250D02*
X204978125Y-166556250D01*
X204978125Y-166556250D02*
X204978125Y-162656250D01*
X206978125Y-166556250D02*
X206978125Y-162656250D01*
%TO.C,D51*%
X226028125Y-166556250D02*
X224028125Y-166556250D01*
X224028125Y-166556250D02*
X224028125Y-162656250D01*
X226028125Y-166556250D02*
X226028125Y-162656250D01*
%TO.C,D52*%
X245078125Y-166556250D02*
X243078125Y-166556250D01*
X243078125Y-166556250D02*
X243078125Y-162656250D01*
X245078125Y-166556250D02*
X245078125Y-162656250D01*
%TO.C,D53*%
X264128125Y-166556250D02*
X262128125Y-166556250D01*
X262128125Y-166556250D02*
X262128125Y-162656250D01*
X264128125Y-166556250D02*
X264128125Y-162656250D01*
%TO.C,D54*%
X283178125Y-166556250D02*
X281178125Y-166556250D01*
X281178125Y-166556250D02*
X281178125Y-162656250D01*
X283178125Y-166556250D02*
X283178125Y-162656250D01*
%TO.C,D55*%
X302228125Y-166556250D02*
X300228125Y-166556250D01*
X300228125Y-166556250D02*
X300228125Y-162656250D01*
X302228125Y-166556250D02*
X302228125Y-162656250D01*
%TO.C,D56*%
X328421875Y-166556250D02*
X326421875Y-166556250D01*
X326421875Y-166556250D02*
X326421875Y-162656250D01*
X328421875Y-166556250D02*
X328421875Y-162656250D01*
%TO.C,D57*%
X354615625Y-166556250D02*
X352615625Y-166556250D01*
X352615625Y-166556250D02*
X352615625Y-162656250D01*
X354615625Y-166556250D02*
X354615625Y-162656250D01*
%TO.C,D58*%
X373665625Y-166556250D02*
X371665625Y-166556250D01*
X371665625Y-166556250D02*
X371665625Y-162656250D01*
X373665625Y-166556250D02*
X373665625Y-162656250D01*
%TO.C,D59*%
X92678125Y-185606250D02*
X90678125Y-185606250D01*
X90678125Y-185606250D02*
X90678125Y-181706250D01*
X92678125Y-185606250D02*
X92678125Y-181706250D01*
%TO.C,D60*%
X116490625Y-185606250D02*
X114490625Y-185606250D01*
X114490625Y-185606250D02*
X114490625Y-181706250D01*
X116490625Y-185606250D02*
X116490625Y-181706250D01*
%TO.C,D61*%
X140303125Y-185606250D02*
X138303125Y-185606250D01*
X138303125Y-185606250D02*
X138303125Y-181706250D01*
X140303125Y-185606250D02*
X140303125Y-181706250D01*
%TO.C,D62*%
X221265625Y-185606250D02*
X219265625Y-185606250D01*
X219265625Y-185606250D02*
X219265625Y-181706250D01*
X221265625Y-185606250D02*
X221265625Y-181706250D01*
%TO.C,D63*%
X302228125Y-185606250D02*
X300228125Y-185606250D01*
X300228125Y-185606250D02*
X300228125Y-181706250D01*
X302228125Y-185606250D02*
X302228125Y-181706250D01*
%TO.C,D64*%
X335565625Y-185606250D02*
X333565625Y-185606250D01*
X333565625Y-185606250D02*
X333565625Y-181706250D01*
X335565625Y-185606250D02*
X335565625Y-181706250D01*
%TO.C,D65*%
X354615625Y-185606250D02*
X352615625Y-185606250D01*
X352615625Y-185606250D02*
X352615625Y-181706250D01*
X354615625Y-185606250D02*
X354615625Y-181706250D01*
%TO.C,D66*%
X373665625Y-185606250D02*
X371665625Y-185606250D01*
X371665625Y-185606250D02*
X371665625Y-181706250D01*
X373665625Y-185606250D02*
X373665625Y-181706250D01*
%TO.C,USB1*%
D11*
X235138095Y-101707380D02*
X235138095Y-102516904D01*
X235090476Y-102612142D01*
X235042857Y-102659761D01*
X234947619Y-102707380D01*
X234757142Y-102707380D01*
X234661904Y-102659761D01*
X234614285Y-102612142D01*
X234566666Y-102516904D01*
X234566666Y-101707380D01*
X234138095Y-102659761D02*
X233995238Y-102707380D01*
X233757142Y-102707380D01*
X233661904Y-102659761D01*
X233614285Y-102612142D01*
X233566666Y-102516904D01*
X233566666Y-102421666D01*
X233614285Y-102326428D01*
X233661904Y-102278809D01*
X233757142Y-102231190D01*
X233947619Y-102183571D01*
X234042857Y-102135952D01*
X234090476Y-102088333D01*
X234138095Y-101993095D01*
X234138095Y-101897857D01*
X234090476Y-101802619D01*
X234042857Y-101755000D01*
X233947619Y-101707380D01*
X233709523Y-101707380D01*
X233566666Y-101755000D01*
X232804761Y-102183571D02*
X232661904Y-102231190D01*
X232614285Y-102278809D01*
X232566666Y-102374047D01*
X232566666Y-102516904D01*
X232614285Y-102612142D01*
X232661904Y-102659761D01*
X232757142Y-102707380D01*
X233138095Y-102707380D01*
X233138095Y-101707380D01*
X232804761Y-101707380D01*
X232709523Y-101755000D01*
X232661904Y-101802619D01*
X232614285Y-101897857D01*
X232614285Y-101993095D01*
X232661904Y-102088333D01*
X232709523Y-102135952D01*
X232804761Y-102183571D01*
X233138095Y-102183571D01*
X231614285Y-102707380D02*
X232185714Y-102707380D01*
X231900000Y-102707380D02*
X231900000Y-101707380D01*
X231995238Y-101850238D01*
X232090476Y-101945476D01*
X232185714Y-101993095D01*
%TO.C,U2*%
X234092704Y-113995580D02*
X234092704Y-114805104D01*
X234045085Y-114900342D01*
X233997466Y-114947961D01*
X233902228Y-114995580D01*
X233711752Y-114995580D01*
X233616514Y-114947961D01*
X233568895Y-114900342D01*
X233521276Y-114805104D01*
X233521276Y-113995580D01*
X233092704Y-114090819D02*
X233045085Y-114043200D01*
X232949847Y-113995580D01*
X232711752Y-113995580D01*
X232616514Y-114043200D01*
X232568895Y-114090819D01*
X232521276Y-114186057D01*
X232521276Y-114281295D01*
X232568895Y-114424152D01*
X233140323Y-114995580D01*
X232521276Y-114995580D01*
%TO.C,F1*%
X233714933Y-110394571D02*
X234048266Y-110394571D01*
X234048266Y-110918380D02*
X234048266Y-109918380D01*
X233572076Y-109918380D01*
X232667314Y-110918380D02*
X233238742Y-110918380D01*
X232953028Y-110918380D02*
X232953028Y-109918380D01*
X233048266Y-110061238D01*
X233143504Y-110156476D01*
X233238742Y-110204095D01*
%TO.C,D44*%
X375114880Y-107685714D02*
X374114880Y-107685714D01*
X374114880Y-107923809D01*
X374162500Y-108066666D01*
X374257738Y-108161904D01*
X374352976Y-108209523D01*
X374543452Y-108257142D01*
X374686309Y-108257142D01*
X374876785Y-108209523D01*
X374972023Y-108161904D01*
X375067261Y-108066666D01*
X375114880Y-107923809D01*
X375114880Y-107685714D01*
X374448214Y-109114285D02*
X375114880Y-109114285D01*
X374067261Y-108876190D02*
X374781547Y-108638095D01*
X374781547Y-109257142D01*
X374448214Y-110066666D02*
X375114880Y-110066666D01*
X374067261Y-109828571D02*
X374781547Y-109590476D01*
X374781547Y-110209523D01*
%TO.C,C1*%
X247872916Y-172763392D02*
X247920535Y-172811011D01*
X248063392Y-172858630D01*
X248158630Y-172858630D01*
X248301488Y-172811011D01*
X248396726Y-172715773D01*
X248444345Y-172620535D01*
X248491964Y-172430059D01*
X248491964Y-172287202D01*
X248444345Y-172096726D01*
X248396726Y-172001488D01*
X248301488Y-171906250D01*
X248158630Y-171858630D01*
X248063392Y-171858630D01*
X247920535Y-171906250D01*
X247872916Y-171953869D01*
X246920535Y-172858630D02*
X247491964Y-172858630D01*
X247206250Y-172858630D02*
X247206250Y-171858630D01*
X247301488Y-172001488D01*
X247396726Y-172096726D01*
X247491964Y-172144345D01*
%TO.C,C2*%
X248016666Y-180107142D02*
X248064285Y-180154761D01*
X248207142Y-180202380D01*
X248302380Y-180202380D01*
X248445238Y-180154761D01*
X248540476Y-180059523D01*
X248588095Y-179964285D01*
X248635714Y-179773809D01*
X248635714Y-179630952D01*
X248588095Y-179440476D01*
X248540476Y-179345238D01*
X248445238Y-179250000D01*
X248302380Y-179202380D01*
X248207142Y-179202380D01*
X248064285Y-179250000D01*
X248016666Y-179297619D01*
X247635714Y-179297619D02*
X247588095Y-179250000D01*
X247492857Y-179202380D01*
X247254761Y-179202380D01*
X247159523Y-179250000D01*
X247111904Y-179297619D01*
X247064285Y-179392857D01*
X247064285Y-179488095D01*
X247111904Y-179630952D01*
X247683333Y-180202380D01*
X247064285Y-180202380D01*
%TO.C,C3*%
X261222916Y-187013392D02*
X261270535Y-187061011D01*
X261413392Y-187108630D01*
X261508630Y-187108630D01*
X261651488Y-187061011D01*
X261746726Y-186965773D01*
X261794345Y-186870535D01*
X261841964Y-186680059D01*
X261841964Y-186537202D01*
X261794345Y-186346726D01*
X261746726Y-186251488D01*
X261651488Y-186156250D01*
X261508630Y-186108630D01*
X261413392Y-186108630D01*
X261270535Y-186156250D01*
X261222916Y-186203869D01*
X260889583Y-186108630D02*
X260270535Y-186108630D01*
X260603869Y-186489583D01*
X260461011Y-186489583D01*
X260365773Y-186537202D01*
X260318154Y-186584821D01*
X260270535Y-186680059D01*
X260270535Y-186918154D01*
X260318154Y-187013392D01*
X260365773Y-187061011D01*
X260461011Y-187108630D01*
X260746726Y-187108630D01*
X260841964Y-187061011D01*
X260889583Y-187013392D01*
%TO.C,C4*%
X263472916Y-169663392D02*
X263520535Y-169711011D01*
X263663392Y-169758630D01*
X263758630Y-169758630D01*
X263901488Y-169711011D01*
X263996726Y-169615773D01*
X264044345Y-169520535D01*
X264091964Y-169330059D01*
X264091964Y-169187202D01*
X264044345Y-168996726D01*
X263996726Y-168901488D01*
X263901488Y-168806250D01*
X263758630Y-168758630D01*
X263663392Y-168758630D01*
X263520535Y-168806250D01*
X263472916Y-168853869D01*
X262615773Y-169091964D02*
X262615773Y-169758630D01*
X262853869Y-168711011D02*
X263091964Y-169425297D01*
X262472916Y-169425297D01*
%TO.C,C5*%
X251472916Y-167463392D02*
X251520535Y-167511011D01*
X251663392Y-167558630D01*
X251758630Y-167558630D01*
X251901488Y-167511011D01*
X251996726Y-167415773D01*
X252044345Y-167320535D01*
X252091964Y-167130059D01*
X252091964Y-166987202D01*
X252044345Y-166796726D01*
X251996726Y-166701488D01*
X251901488Y-166606250D01*
X251758630Y-166558630D01*
X251663392Y-166558630D01*
X251520535Y-166606250D01*
X251472916Y-166653869D01*
X250568154Y-166558630D02*
X251044345Y-166558630D01*
X251091964Y-167034821D01*
X251044345Y-166987202D01*
X250949107Y-166939583D01*
X250711011Y-166939583D01*
X250615773Y-166987202D01*
X250568154Y-167034821D01*
X250520535Y-167130059D01*
X250520535Y-167368154D01*
X250568154Y-167463392D01*
X250615773Y-167511011D01*
X250711011Y-167558630D01*
X250949107Y-167558630D01*
X251044345Y-167511011D01*
X251091964Y-167463392D01*
%TO.C,C6*%
X260066666Y-166607142D02*
X260114285Y-166654761D01*
X260257142Y-166702380D01*
X260352380Y-166702380D01*
X260495238Y-166654761D01*
X260590476Y-166559523D01*
X260638095Y-166464285D01*
X260685714Y-166273809D01*
X260685714Y-166130952D01*
X260638095Y-165940476D01*
X260590476Y-165845238D01*
X260495238Y-165750000D01*
X260352380Y-165702380D01*
X260257142Y-165702380D01*
X260114285Y-165750000D01*
X260066666Y-165797619D01*
X259209523Y-165702380D02*
X259400000Y-165702380D01*
X259495238Y-165750000D01*
X259542857Y-165797619D01*
X259638095Y-165940476D01*
X259685714Y-166130952D01*
X259685714Y-166511904D01*
X259638095Y-166607142D01*
X259590476Y-166654761D01*
X259495238Y-166702380D01*
X259304761Y-166702380D01*
X259209523Y-166654761D01*
X259161904Y-166607142D01*
X259114285Y-166511904D01*
X259114285Y-166273809D01*
X259161904Y-166178571D01*
X259209523Y-166130952D01*
X259304761Y-166083333D01*
X259495238Y-166083333D01*
X259590476Y-166130952D01*
X259638095Y-166178571D01*
X259685714Y-166273809D01*
%TO.C,C7*%
X274772916Y-176363392D02*
X274820535Y-176411011D01*
X274963392Y-176458630D01*
X275058630Y-176458630D01*
X275201488Y-176411011D01*
X275296726Y-176315773D01*
X275344345Y-176220535D01*
X275391964Y-176030059D01*
X275391964Y-175887202D01*
X275344345Y-175696726D01*
X275296726Y-175601488D01*
X275201488Y-175506250D01*
X275058630Y-175458630D01*
X274963392Y-175458630D01*
X274820535Y-175506250D01*
X274772916Y-175553869D01*
X274439583Y-175458630D02*
X273772916Y-175458630D01*
X274201488Y-176458630D01*
%TO.C,C8*%
X274872916Y-182263392D02*
X274920535Y-182311011D01*
X275063392Y-182358630D01*
X275158630Y-182358630D01*
X275301488Y-182311011D01*
X275396726Y-182215773D01*
X275444345Y-182120535D01*
X275491964Y-181930059D01*
X275491964Y-181787202D01*
X275444345Y-181596726D01*
X275396726Y-181501488D01*
X275301488Y-181406250D01*
X275158630Y-181358630D01*
X275063392Y-181358630D01*
X274920535Y-181406250D01*
X274872916Y-181453869D01*
X274301488Y-181787202D02*
X274396726Y-181739583D01*
X274444345Y-181691964D01*
X274491964Y-181596726D01*
X274491964Y-181549107D01*
X274444345Y-181453869D01*
X274396726Y-181406250D01*
X274301488Y-181358630D01*
X274111011Y-181358630D01*
X274015773Y-181406250D01*
X273968154Y-181453869D01*
X273920535Y-181549107D01*
X273920535Y-181596726D01*
X273968154Y-181691964D01*
X274015773Y-181739583D01*
X274111011Y-181787202D01*
X274301488Y-181787202D01*
X274396726Y-181834821D01*
X274444345Y-181882440D01*
X274491964Y-181977678D01*
X274491964Y-182168154D01*
X274444345Y-182263392D01*
X274396726Y-182311011D01*
X274301488Y-182358630D01*
X274111011Y-182358630D01*
X274015773Y-182311011D01*
X273968154Y-182263392D01*
X273920535Y-182168154D01*
X273920535Y-181977678D01*
X273968154Y-181882440D01*
X274015773Y-181834821D01*
X274111011Y-181787202D01*
%TO.C,R1*%
X229302380Y-106433333D02*
X228826190Y-106100000D01*
X229302380Y-105861904D02*
X228302380Y-105861904D01*
X228302380Y-106242857D01*
X228350000Y-106338095D01*
X228397619Y-106385714D01*
X228492857Y-106433333D01*
X228635714Y-106433333D01*
X228730952Y-106385714D01*
X228778571Y-106338095D01*
X228826190Y-106242857D01*
X228826190Y-105861904D01*
X229302380Y-107385714D02*
X229302380Y-106814285D01*
X229302380Y-107100000D02*
X228302380Y-107100000D01*
X228445238Y-107004761D01*
X228540476Y-106909523D01*
X228588095Y-106814285D01*
%TO.C,R2*%
X237462930Y-106363883D02*
X236986740Y-106030550D01*
X237462930Y-105792454D02*
X236462930Y-105792454D01*
X236462930Y-106173407D01*
X236510550Y-106268645D01*
X236558169Y-106316264D01*
X236653407Y-106363883D01*
X236796264Y-106363883D01*
X236891502Y-106316264D01*
X236939121Y-106268645D01*
X236986740Y-106173407D01*
X236986740Y-105792454D01*
X236558169Y-106744835D02*
X236510550Y-106792454D01*
X236462930Y-106887692D01*
X236462930Y-107125788D01*
X236510550Y-107221026D01*
X236558169Y-107268645D01*
X236653407Y-107316264D01*
X236748645Y-107316264D01*
X236891502Y-107268645D01*
X237462930Y-106697216D01*
X237462930Y-107316264D01*
%TO.C,R3*%
X254372916Y-165758630D02*
X254706250Y-165282440D01*
X254944345Y-165758630D02*
X254944345Y-164758630D01*
X254563392Y-164758630D01*
X254468154Y-164806250D01*
X254420535Y-164853869D01*
X254372916Y-164949107D01*
X254372916Y-165091964D01*
X254420535Y-165187202D01*
X254468154Y-165234821D01*
X254563392Y-165282440D01*
X254944345Y-165282440D01*
X254039583Y-164758630D02*
X253420535Y-164758630D01*
X253753869Y-165139583D01*
X253611011Y-165139583D01*
X253515773Y-165187202D01*
X253468154Y-165234821D01*
X253420535Y-165330059D01*
X253420535Y-165568154D01*
X253468154Y-165663392D01*
X253515773Y-165711011D01*
X253611011Y-165758630D01*
X253896726Y-165758630D01*
X253991964Y-165711011D01*
X254039583Y-165663392D01*
%TO.C,R4*%
X256772916Y-165758630D02*
X257106250Y-165282440D01*
X257344345Y-165758630D02*
X257344345Y-164758630D01*
X256963392Y-164758630D01*
X256868154Y-164806250D01*
X256820535Y-164853869D01*
X256772916Y-164949107D01*
X256772916Y-165091964D01*
X256820535Y-165187202D01*
X256868154Y-165234821D01*
X256963392Y-165282440D01*
X257344345Y-165282440D01*
X255915773Y-165091964D02*
X255915773Y-165758630D01*
X256153869Y-164711011D02*
X256391964Y-165425297D01*
X255772916Y-165425297D01*
%TO.C,R5*%
X268602380Y-174945833D02*
X268126190Y-174612500D01*
X268602380Y-174374404D02*
X267602380Y-174374404D01*
X267602380Y-174755357D01*
X267650000Y-174850595D01*
X267697619Y-174898214D01*
X267792857Y-174945833D01*
X267935714Y-174945833D01*
X268030952Y-174898214D01*
X268078571Y-174850595D01*
X268126190Y-174755357D01*
X268126190Y-174374404D01*
X267602380Y-175850595D02*
X267602380Y-175374404D01*
X268078571Y-175326785D01*
X268030952Y-175374404D01*
X267983333Y-175469642D01*
X267983333Y-175707738D01*
X268030952Y-175802976D01*
X268078571Y-175850595D01*
X268173809Y-175898214D01*
X268411904Y-175898214D01*
X268507142Y-175850595D01*
X268554761Y-175802976D01*
X268602380Y-175707738D01*
X268602380Y-175469642D01*
X268554761Y-175374404D01*
X268507142Y-175326785D01*
%TO.C,R6*%
X246016666Y-180102380D02*
X246350000Y-179626190D01*
X246588095Y-180102380D02*
X246588095Y-179102380D01*
X246207142Y-179102380D01*
X246111904Y-179150000D01*
X246064285Y-179197619D01*
X246016666Y-179292857D01*
X246016666Y-179435714D01*
X246064285Y-179530952D01*
X246111904Y-179578571D01*
X246207142Y-179626190D01*
X246588095Y-179626190D01*
X245159523Y-179102380D02*
X245350000Y-179102380D01*
X245445238Y-179150000D01*
X245492857Y-179197619D01*
X245588095Y-179340476D01*
X245635714Y-179530952D01*
X245635714Y-179911904D01*
X245588095Y-180007142D01*
X245540476Y-180054761D01*
X245445238Y-180102380D01*
X245254761Y-180102380D01*
X245159523Y-180054761D01*
X245111904Y-180007142D01*
X245064285Y-179911904D01*
X245064285Y-179673809D01*
X245111904Y-179578571D01*
X245159523Y-179530952D01*
X245254761Y-179483333D01*
X245445238Y-179483333D01*
X245540476Y-179530952D01*
X245588095Y-179578571D01*
X245635714Y-179673809D01*
%TO.C,U1*%
X252368154Y-172158630D02*
X252368154Y-172968154D01*
X252320535Y-173063392D01*
X252272916Y-173111011D01*
X252177678Y-173158630D01*
X251987202Y-173158630D01*
X251891964Y-173111011D01*
X251844345Y-173063392D01*
X251796726Y-172968154D01*
X251796726Y-172158630D01*
X250796726Y-173158630D02*
X251368154Y-173158630D01*
X251082440Y-173158630D02*
X251082440Y-172158630D01*
X251177678Y-172301488D01*
X251272916Y-172396726D01*
X251368154Y-172444345D01*
%TO.C,D1*%
X89368078Y-106418244D02*
X88368078Y-106418244D01*
X88368078Y-106656340D01*
X88415698Y-106799197D01*
X88510936Y-106894435D01*
X88606174Y-106942054D01*
X88796650Y-106989673D01*
X88939507Y-106989673D01*
X89129983Y-106942054D01*
X89225221Y-106894435D01*
X89320459Y-106799197D01*
X89368078Y-106656340D01*
X89368078Y-106418244D01*
X89368078Y-107942054D02*
X89368078Y-107370625D01*
X89368078Y-107656340D02*
X88368078Y-107656340D01*
X88510936Y-107561101D01*
X88606174Y-107465863D01*
X88653793Y-107370625D01*
%TO.C,D2*%
X108418094Y-106418244D02*
X107418094Y-106418244D01*
X107418094Y-106656340D01*
X107465714Y-106799197D01*
X107560952Y-106894435D01*
X107656190Y-106942054D01*
X107846666Y-106989673D01*
X107989523Y-106989673D01*
X108179999Y-106942054D01*
X108275237Y-106894435D01*
X108370475Y-106799197D01*
X108418094Y-106656340D01*
X108418094Y-106418244D01*
X107513333Y-107370625D02*
X107465714Y-107418244D01*
X107418094Y-107513482D01*
X107418094Y-107751578D01*
X107465714Y-107846816D01*
X107513333Y-107894435D01*
X107608571Y-107942054D01*
X107703809Y-107942054D01*
X107846666Y-107894435D01*
X108418094Y-107323006D01*
X108418094Y-107942054D01*
%TO.C,D3*%
X127468005Y-106418154D02*
X126468005Y-106418154D01*
X126468005Y-106656250D01*
X126515625Y-106799107D01*
X126610863Y-106894345D01*
X126706101Y-106941964D01*
X126896577Y-106989583D01*
X127039434Y-106989583D01*
X127229910Y-106941964D01*
X127325148Y-106894345D01*
X127420386Y-106799107D01*
X127468005Y-106656250D01*
X127468005Y-106418154D01*
X126468005Y-107322916D02*
X126468005Y-107941964D01*
X126848958Y-107608630D01*
X126848958Y-107751488D01*
X126896577Y-107846726D01*
X126944196Y-107894345D01*
X127039434Y-107941964D01*
X127277529Y-107941964D01*
X127372767Y-107894345D01*
X127420386Y-107846726D01*
X127468005Y-107751488D01*
X127468005Y-107465773D01*
X127420386Y-107370535D01*
X127372767Y-107322916D01*
%TO.C,D4*%
X146518005Y-106418154D02*
X145518005Y-106418154D01*
X145518005Y-106656250D01*
X145565625Y-106799107D01*
X145660863Y-106894345D01*
X145756101Y-106941964D01*
X145946577Y-106989583D01*
X146089434Y-106989583D01*
X146279910Y-106941964D01*
X146375148Y-106894345D01*
X146470386Y-106799107D01*
X146518005Y-106656250D01*
X146518005Y-106418154D01*
X145851339Y-107846726D02*
X146518005Y-107846726D01*
X145470386Y-107608630D02*
X146184672Y-107370535D01*
X146184672Y-107989583D01*
%TO.C,D5*%
X165568005Y-106418154D02*
X164568005Y-106418154D01*
X164568005Y-106656250D01*
X164615625Y-106799107D01*
X164710863Y-106894345D01*
X164806101Y-106941964D01*
X164996577Y-106989583D01*
X165139434Y-106989583D01*
X165329910Y-106941964D01*
X165425148Y-106894345D01*
X165520386Y-106799107D01*
X165568005Y-106656250D01*
X165568005Y-106418154D01*
X164568005Y-107894345D02*
X164568005Y-107418154D01*
X165044196Y-107370535D01*
X164996577Y-107418154D01*
X164948958Y-107513392D01*
X164948958Y-107751488D01*
X164996577Y-107846726D01*
X165044196Y-107894345D01*
X165139434Y-107941964D01*
X165377529Y-107941964D01*
X165472767Y-107894345D01*
X165520386Y-107846726D01*
X165568005Y-107751488D01*
X165568005Y-107513392D01*
X165520386Y-107418154D01*
X165472767Y-107370535D01*
%TO.C,D6*%
X184618005Y-106418154D02*
X183618005Y-106418154D01*
X183618005Y-106656250D01*
X183665625Y-106799107D01*
X183760863Y-106894345D01*
X183856101Y-106941964D01*
X184046577Y-106989583D01*
X184189434Y-106989583D01*
X184379910Y-106941964D01*
X184475148Y-106894345D01*
X184570386Y-106799107D01*
X184618005Y-106656250D01*
X184618005Y-106418154D01*
X183618005Y-107846726D02*
X183618005Y-107656250D01*
X183665625Y-107561011D01*
X183713244Y-107513392D01*
X183856101Y-107418154D01*
X184046577Y-107370535D01*
X184427529Y-107370535D01*
X184522767Y-107418154D01*
X184570386Y-107465773D01*
X184618005Y-107561011D01*
X184618005Y-107751488D01*
X184570386Y-107846726D01*
X184522767Y-107894345D01*
X184427529Y-107941964D01*
X184189434Y-107941964D01*
X184094196Y-107894345D01*
X184046577Y-107846726D01*
X183998958Y-107751488D01*
X183998958Y-107561011D01*
X184046577Y-107465773D01*
X184094196Y-107418154D01*
X184189434Y-107370535D01*
%TO.C,D7*%
X203668005Y-106418154D02*
X202668005Y-106418154D01*
X202668005Y-106656250D01*
X202715625Y-106799107D01*
X202810863Y-106894345D01*
X202906101Y-106941964D01*
X203096577Y-106989583D01*
X203239434Y-106989583D01*
X203429910Y-106941964D01*
X203525148Y-106894345D01*
X203620386Y-106799107D01*
X203668005Y-106656250D01*
X203668005Y-106418154D01*
X202668005Y-107322916D02*
X202668005Y-107989583D01*
X203668005Y-107561011D01*
%TO.C,D8*%
X222718005Y-106418154D02*
X221718005Y-106418154D01*
X221718005Y-106656250D01*
X221765625Y-106799107D01*
X221860863Y-106894345D01*
X221956101Y-106941964D01*
X222146577Y-106989583D01*
X222289434Y-106989583D01*
X222479910Y-106941964D01*
X222575148Y-106894345D01*
X222670386Y-106799107D01*
X222718005Y-106656250D01*
X222718005Y-106418154D01*
X222146577Y-107561011D02*
X222098958Y-107465773D01*
X222051339Y-107418154D01*
X221956101Y-107370535D01*
X221908482Y-107370535D01*
X221813244Y-107418154D01*
X221765625Y-107465773D01*
X221718005Y-107561011D01*
X221718005Y-107751488D01*
X221765625Y-107846726D01*
X221813244Y-107894345D01*
X221908482Y-107941964D01*
X221956101Y-107941964D01*
X222051339Y-107894345D01*
X222098958Y-107846726D01*
X222146577Y-107751488D01*
X222146577Y-107561011D01*
X222194196Y-107465773D01*
X222241815Y-107418154D01*
X222337053Y-107370535D01*
X222527529Y-107370535D01*
X222622767Y-107418154D01*
X222670386Y-107465773D01*
X222718005Y-107561011D01*
X222718005Y-107751488D01*
X222670386Y-107846726D01*
X222622767Y-107894345D01*
X222527529Y-107941964D01*
X222337053Y-107941964D01*
X222241815Y-107894345D01*
X222194196Y-107846726D01*
X222146577Y-107751488D01*
%TO.C,D9*%
X241768005Y-106418154D02*
X240768005Y-106418154D01*
X240768005Y-106656250D01*
X240815625Y-106799107D01*
X240910863Y-106894345D01*
X241006101Y-106941964D01*
X241196577Y-106989583D01*
X241339434Y-106989583D01*
X241529910Y-106941964D01*
X241625148Y-106894345D01*
X241720386Y-106799107D01*
X241768005Y-106656250D01*
X241768005Y-106418154D01*
X241768005Y-107465773D02*
X241768005Y-107656250D01*
X241720386Y-107751488D01*
X241672767Y-107799107D01*
X241529910Y-107894345D01*
X241339434Y-107941964D01*
X240958482Y-107941964D01*
X240863244Y-107894345D01*
X240815625Y-107846726D01*
X240768005Y-107751488D01*
X240768005Y-107561011D01*
X240815625Y-107465773D01*
X240863244Y-107418154D01*
X240958482Y-107370535D01*
X241196577Y-107370535D01*
X241291815Y-107418154D01*
X241339434Y-107465773D01*
X241387053Y-107561011D01*
X241387053Y-107751488D01*
X241339434Y-107846726D01*
X241291815Y-107894345D01*
X241196577Y-107941964D01*
%TO.C,D10*%
X260818005Y-105941964D02*
X259818005Y-105941964D01*
X259818005Y-106180059D01*
X259865625Y-106322916D01*
X259960863Y-106418154D01*
X260056101Y-106465773D01*
X260246577Y-106513392D01*
X260389434Y-106513392D01*
X260579910Y-106465773D01*
X260675148Y-106418154D01*
X260770386Y-106322916D01*
X260818005Y-106180059D01*
X260818005Y-105941964D01*
X260818005Y-107465773D02*
X260818005Y-106894345D01*
X260818005Y-107180059D02*
X259818005Y-107180059D01*
X259960863Y-107084821D01*
X260056101Y-106989583D01*
X260103720Y-106894345D01*
X259818005Y-108084821D02*
X259818005Y-108180059D01*
X259865625Y-108275297D01*
X259913244Y-108322916D01*
X260008482Y-108370535D01*
X260198958Y-108418154D01*
X260437053Y-108418154D01*
X260627529Y-108370535D01*
X260722767Y-108322916D01*
X260770386Y-108275297D01*
X260818005Y-108180059D01*
X260818005Y-108084821D01*
X260770386Y-107989583D01*
X260722767Y-107941964D01*
X260627529Y-107894345D01*
X260437053Y-107846726D01*
X260198958Y-107846726D01*
X260008482Y-107894345D01*
X259913244Y-107941964D01*
X259865625Y-107989583D01*
X259818005Y-108084821D01*
%TO.C,D11*%
X279868005Y-105941964D02*
X278868005Y-105941964D01*
X278868005Y-106180059D01*
X278915625Y-106322916D01*
X279010863Y-106418154D01*
X279106101Y-106465773D01*
X279296577Y-106513392D01*
X279439434Y-106513392D01*
X279629910Y-106465773D01*
X279725148Y-106418154D01*
X279820386Y-106322916D01*
X279868005Y-106180059D01*
X279868005Y-105941964D01*
X279868005Y-107465773D02*
X279868005Y-106894345D01*
X279868005Y-107180059D02*
X278868005Y-107180059D01*
X279010863Y-107084821D01*
X279106101Y-106989583D01*
X279153720Y-106894345D01*
X279868005Y-108418154D02*
X279868005Y-107846726D01*
X279868005Y-108132440D02*
X278868005Y-108132440D01*
X279010863Y-108037202D01*
X279106101Y-107941964D01*
X279153720Y-107846726D01*
%TO.C,D12*%
X298918005Y-105941964D02*
X297918005Y-105941964D01*
X297918005Y-106180059D01*
X297965625Y-106322916D01*
X298060863Y-106418154D01*
X298156101Y-106465773D01*
X298346577Y-106513392D01*
X298489434Y-106513392D01*
X298679910Y-106465773D01*
X298775148Y-106418154D01*
X298870386Y-106322916D01*
X298918005Y-106180059D01*
X298918005Y-105941964D01*
X298918005Y-107465773D02*
X298918005Y-106894345D01*
X298918005Y-107180059D02*
X297918005Y-107180059D01*
X298060863Y-107084821D01*
X298156101Y-106989583D01*
X298203720Y-106894345D01*
X298013244Y-107846726D02*
X297965625Y-107894345D01*
X297918005Y-107989583D01*
X297918005Y-108227678D01*
X297965625Y-108322916D01*
X298013244Y-108370535D01*
X298108482Y-108418154D01*
X298203720Y-108418154D01*
X298346577Y-108370535D01*
X298918005Y-107799107D01*
X298918005Y-108418154D01*
%TO.C,D13*%
X317968005Y-105941964D02*
X316968005Y-105941964D01*
X316968005Y-106180059D01*
X317015625Y-106322916D01*
X317110863Y-106418154D01*
X317206101Y-106465773D01*
X317396577Y-106513392D01*
X317539434Y-106513392D01*
X317729910Y-106465773D01*
X317825148Y-106418154D01*
X317920386Y-106322916D01*
X317968005Y-106180059D01*
X317968005Y-105941964D01*
X317968005Y-107465773D02*
X317968005Y-106894345D01*
X317968005Y-107180059D02*
X316968005Y-107180059D01*
X317110863Y-107084821D01*
X317206101Y-106989583D01*
X317253720Y-106894345D01*
X316968005Y-107799107D02*
X316968005Y-108418154D01*
X317348958Y-108084821D01*
X317348958Y-108227678D01*
X317396577Y-108322916D01*
X317444196Y-108370535D01*
X317539434Y-108418154D01*
X317777529Y-108418154D01*
X317872767Y-108370535D01*
X317920386Y-108322916D01*
X317968005Y-108227678D01*
X317968005Y-107941964D01*
X317920386Y-107846726D01*
X317872767Y-107799107D01*
%TO.C,D14*%
X337018005Y-105941964D02*
X336018005Y-105941964D01*
X336018005Y-106180059D01*
X336065625Y-106322916D01*
X336160863Y-106418154D01*
X336256101Y-106465773D01*
X336446577Y-106513392D01*
X336589434Y-106513392D01*
X336779910Y-106465773D01*
X336875148Y-106418154D01*
X336970386Y-106322916D01*
X337018005Y-106180059D01*
X337018005Y-105941964D01*
X337018005Y-107465773D02*
X337018005Y-106894345D01*
X337018005Y-107180059D02*
X336018005Y-107180059D01*
X336160863Y-107084821D01*
X336256101Y-106989583D01*
X336303720Y-106894345D01*
X336351339Y-108322916D02*
X337018005Y-108322916D01*
X335970386Y-108084821D02*
X336684672Y-107846726D01*
X336684672Y-108465773D01*
%TO.C,D15*%
X356068005Y-105941964D02*
X355068005Y-105941964D01*
X355068005Y-106180059D01*
X355115625Y-106322916D01*
X355210863Y-106418154D01*
X355306101Y-106465773D01*
X355496577Y-106513392D01*
X355639434Y-106513392D01*
X355829910Y-106465773D01*
X355925148Y-106418154D01*
X356020386Y-106322916D01*
X356068005Y-106180059D01*
X356068005Y-105941964D01*
X356068005Y-107465773D02*
X356068005Y-106894345D01*
X356068005Y-107180059D02*
X355068005Y-107180059D01*
X355210863Y-107084821D01*
X355306101Y-106989583D01*
X355353720Y-106894345D01*
X355068005Y-108370535D02*
X355068005Y-107894345D01*
X355544196Y-107846726D01*
X355496577Y-107894345D01*
X355448958Y-107989583D01*
X355448958Y-108227678D01*
X355496577Y-108322916D01*
X355544196Y-108370535D01*
X355639434Y-108418154D01*
X355877529Y-108418154D01*
X355972767Y-108370535D01*
X356020386Y-108322916D01*
X356068005Y-108227678D01*
X356068005Y-107989583D01*
X356020386Y-107894345D01*
X355972767Y-107846726D01*
%TO.C,D16*%
X94130505Y-124991964D02*
X93130505Y-124991964D01*
X93130505Y-125230059D01*
X93178125Y-125372916D01*
X93273363Y-125468154D01*
X93368601Y-125515773D01*
X93559077Y-125563392D01*
X93701934Y-125563392D01*
X93892410Y-125515773D01*
X93987648Y-125468154D01*
X94082886Y-125372916D01*
X94130505Y-125230059D01*
X94130505Y-124991964D01*
X94130505Y-126515773D02*
X94130505Y-125944345D01*
X94130505Y-126230059D02*
X93130505Y-126230059D01*
X93273363Y-126134821D01*
X93368601Y-126039583D01*
X93416220Y-125944345D01*
X93130505Y-127372916D02*
X93130505Y-127182440D01*
X93178125Y-127087202D01*
X93225744Y-127039583D01*
X93368601Y-126944345D01*
X93559077Y-126896726D01*
X93940029Y-126896726D01*
X94035267Y-126944345D01*
X94082886Y-126991964D01*
X94130505Y-127087202D01*
X94130505Y-127277678D01*
X94082886Y-127372916D01*
X94035267Y-127420535D01*
X93940029Y-127468154D01*
X93701934Y-127468154D01*
X93606696Y-127420535D01*
X93559077Y-127372916D01*
X93511458Y-127277678D01*
X93511458Y-127087202D01*
X93559077Y-126991964D01*
X93606696Y-126944345D01*
X93701934Y-126896726D01*
%TO.C,D17*%
X117943005Y-124991964D02*
X116943005Y-124991964D01*
X116943005Y-125230059D01*
X116990625Y-125372916D01*
X117085863Y-125468154D01*
X117181101Y-125515773D01*
X117371577Y-125563392D01*
X117514434Y-125563392D01*
X117704910Y-125515773D01*
X117800148Y-125468154D01*
X117895386Y-125372916D01*
X117943005Y-125230059D01*
X117943005Y-124991964D01*
X117943005Y-126515773D02*
X117943005Y-125944345D01*
X117943005Y-126230059D02*
X116943005Y-126230059D01*
X117085863Y-126134821D01*
X117181101Y-126039583D01*
X117228720Y-125944345D01*
X116943005Y-126849107D02*
X116943005Y-127515773D01*
X117943005Y-127087202D01*
%TO.C,D18*%
X136993005Y-124991964D02*
X135993005Y-124991964D01*
X135993005Y-125230059D01*
X136040625Y-125372916D01*
X136135863Y-125468154D01*
X136231101Y-125515773D01*
X136421577Y-125563392D01*
X136564434Y-125563392D01*
X136754910Y-125515773D01*
X136850148Y-125468154D01*
X136945386Y-125372916D01*
X136993005Y-125230059D01*
X136993005Y-124991964D01*
X136993005Y-126515773D02*
X136993005Y-125944345D01*
X136993005Y-126230059D02*
X135993005Y-126230059D01*
X136135863Y-126134821D01*
X136231101Y-126039583D01*
X136278720Y-125944345D01*
X136421577Y-127087202D02*
X136373958Y-126991964D01*
X136326339Y-126944345D01*
X136231101Y-126896726D01*
X136183482Y-126896726D01*
X136088244Y-126944345D01*
X136040625Y-126991964D01*
X135993005Y-127087202D01*
X135993005Y-127277678D01*
X136040625Y-127372916D01*
X136088244Y-127420535D01*
X136183482Y-127468154D01*
X136231101Y-127468154D01*
X136326339Y-127420535D01*
X136373958Y-127372916D01*
X136421577Y-127277678D01*
X136421577Y-127087202D01*
X136469196Y-126991964D01*
X136516815Y-126944345D01*
X136612053Y-126896726D01*
X136802529Y-126896726D01*
X136897767Y-126944345D01*
X136945386Y-126991964D01*
X136993005Y-127087202D01*
X136993005Y-127277678D01*
X136945386Y-127372916D01*
X136897767Y-127420535D01*
X136802529Y-127468154D01*
X136612053Y-127468154D01*
X136516815Y-127420535D01*
X136469196Y-127372916D01*
X136421577Y-127277678D01*
%TO.C,D19*%
X156043005Y-124991964D02*
X155043005Y-124991964D01*
X155043005Y-125230059D01*
X155090625Y-125372916D01*
X155185863Y-125468154D01*
X155281101Y-125515773D01*
X155471577Y-125563392D01*
X155614434Y-125563392D01*
X155804910Y-125515773D01*
X155900148Y-125468154D01*
X155995386Y-125372916D01*
X156043005Y-125230059D01*
X156043005Y-124991964D01*
X156043005Y-126515773D02*
X156043005Y-125944345D01*
X156043005Y-126230059D02*
X155043005Y-126230059D01*
X155185863Y-126134821D01*
X155281101Y-126039583D01*
X155328720Y-125944345D01*
X156043005Y-126991964D02*
X156043005Y-127182440D01*
X155995386Y-127277678D01*
X155947767Y-127325297D01*
X155804910Y-127420535D01*
X155614434Y-127468154D01*
X155233482Y-127468154D01*
X155138244Y-127420535D01*
X155090625Y-127372916D01*
X155043005Y-127277678D01*
X155043005Y-127087202D01*
X155090625Y-126991964D01*
X155138244Y-126944345D01*
X155233482Y-126896726D01*
X155471577Y-126896726D01*
X155566815Y-126944345D01*
X155614434Y-126991964D01*
X155662053Y-127087202D01*
X155662053Y-127277678D01*
X155614434Y-127372916D01*
X155566815Y-127420535D01*
X155471577Y-127468154D01*
%TO.C,D20*%
X175093005Y-124991964D02*
X174093005Y-124991964D01*
X174093005Y-125230059D01*
X174140625Y-125372916D01*
X174235863Y-125468154D01*
X174331101Y-125515773D01*
X174521577Y-125563392D01*
X174664434Y-125563392D01*
X174854910Y-125515773D01*
X174950148Y-125468154D01*
X175045386Y-125372916D01*
X175093005Y-125230059D01*
X175093005Y-124991964D01*
X174188244Y-125944345D02*
X174140625Y-125991964D01*
X174093005Y-126087202D01*
X174093005Y-126325297D01*
X174140625Y-126420535D01*
X174188244Y-126468154D01*
X174283482Y-126515773D01*
X174378720Y-126515773D01*
X174521577Y-126468154D01*
X175093005Y-125896726D01*
X175093005Y-126515773D01*
X174093005Y-127134821D02*
X174093005Y-127230059D01*
X174140625Y-127325297D01*
X174188244Y-127372916D01*
X174283482Y-127420535D01*
X174473958Y-127468154D01*
X174712053Y-127468154D01*
X174902529Y-127420535D01*
X174997767Y-127372916D01*
X175045386Y-127325297D01*
X175093005Y-127230059D01*
X175093005Y-127134821D01*
X175045386Y-127039583D01*
X174997767Y-126991964D01*
X174902529Y-126944345D01*
X174712053Y-126896726D01*
X174473958Y-126896726D01*
X174283482Y-126944345D01*
X174188244Y-126991964D01*
X174140625Y-127039583D01*
X174093005Y-127134821D01*
%TO.C,D21*%
X194143005Y-124991964D02*
X193143005Y-124991964D01*
X193143005Y-125230059D01*
X193190625Y-125372916D01*
X193285863Y-125468154D01*
X193381101Y-125515773D01*
X193571577Y-125563392D01*
X193714434Y-125563392D01*
X193904910Y-125515773D01*
X194000148Y-125468154D01*
X194095386Y-125372916D01*
X194143005Y-125230059D01*
X194143005Y-124991964D01*
X193238244Y-125944345D02*
X193190625Y-125991964D01*
X193143005Y-126087202D01*
X193143005Y-126325297D01*
X193190625Y-126420535D01*
X193238244Y-126468154D01*
X193333482Y-126515773D01*
X193428720Y-126515773D01*
X193571577Y-126468154D01*
X194143005Y-125896726D01*
X194143005Y-126515773D01*
X194143005Y-127468154D02*
X194143005Y-126896726D01*
X194143005Y-127182440D02*
X193143005Y-127182440D01*
X193285863Y-127087202D01*
X193381101Y-126991964D01*
X193428720Y-126896726D01*
%TO.C,D22*%
X213193005Y-124991964D02*
X212193005Y-124991964D01*
X212193005Y-125230059D01*
X212240625Y-125372916D01*
X212335863Y-125468154D01*
X212431101Y-125515773D01*
X212621577Y-125563392D01*
X212764434Y-125563392D01*
X212954910Y-125515773D01*
X213050148Y-125468154D01*
X213145386Y-125372916D01*
X213193005Y-125230059D01*
X213193005Y-124991964D01*
X212288244Y-125944345D02*
X212240625Y-125991964D01*
X212193005Y-126087202D01*
X212193005Y-126325297D01*
X212240625Y-126420535D01*
X212288244Y-126468154D01*
X212383482Y-126515773D01*
X212478720Y-126515773D01*
X212621577Y-126468154D01*
X213193005Y-125896726D01*
X213193005Y-126515773D01*
X212288244Y-126896726D02*
X212240625Y-126944345D01*
X212193005Y-127039583D01*
X212193005Y-127277678D01*
X212240625Y-127372916D01*
X212288244Y-127420535D01*
X212383482Y-127468154D01*
X212478720Y-127468154D01*
X212621577Y-127420535D01*
X213193005Y-126849107D01*
X213193005Y-127468154D01*
%TO.C,D23*%
X232243005Y-124991964D02*
X231243005Y-124991964D01*
X231243005Y-125230059D01*
X231290625Y-125372916D01*
X231385863Y-125468154D01*
X231481101Y-125515773D01*
X231671577Y-125563392D01*
X231814434Y-125563392D01*
X232004910Y-125515773D01*
X232100148Y-125468154D01*
X232195386Y-125372916D01*
X232243005Y-125230059D01*
X232243005Y-124991964D01*
X231338244Y-125944345D02*
X231290625Y-125991964D01*
X231243005Y-126087202D01*
X231243005Y-126325297D01*
X231290625Y-126420535D01*
X231338244Y-126468154D01*
X231433482Y-126515773D01*
X231528720Y-126515773D01*
X231671577Y-126468154D01*
X232243005Y-125896726D01*
X232243005Y-126515773D01*
X231243005Y-126849107D02*
X231243005Y-127468154D01*
X231623958Y-127134821D01*
X231623958Y-127277678D01*
X231671577Y-127372916D01*
X231719196Y-127420535D01*
X231814434Y-127468154D01*
X232052529Y-127468154D01*
X232147767Y-127420535D01*
X232195386Y-127372916D01*
X232243005Y-127277678D01*
X232243005Y-126991964D01*
X232195386Y-126896726D01*
X232147767Y-126849107D01*
%TO.C,D24*%
X251293005Y-124991964D02*
X250293005Y-124991964D01*
X250293005Y-125230059D01*
X250340625Y-125372916D01*
X250435863Y-125468154D01*
X250531101Y-125515773D01*
X250721577Y-125563392D01*
X250864434Y-125563392D01*
X251054910Y-125515773D01*
X251150148Y-125468154D01*
X251245386Y-125372916D01*
X251293005Y-125230059D01*
X251293005Y-124991964D01*
X250388244Y-125944345D02*
X250340625Y-125991964D01*
X250293005Y-126087202D01*
X250293005Y-126325297D01*
X250340625Y-126420535D01*
X250388244Y-126468154D01*
X250483482Y-126515773D01*
X250578720Y-126515773D01*
X250721577Y-126468154D01*
X251293005Y-125896726D01*
X251293005Y-126515773D01*
X250626339Y-127372916D02*
X251293005Y-127372916D01*
X250245386Y-127134821D02*
X250959672Y-126896726D01*
X250959672Y-127515773D01*
%TO.C,D25*%
X270343005Y-124991964D02*
X269343005Y-124991964D01*
X269343005Y-125230059D01*
X269390625Y-125372916D01*
X269485863Y-125468154D01*
X269581101Y-125515773D01*
X269771577Y-125563392D01*
X269914434Y-125563392D01*
X270104910Y-125515773D01*
X270200148Y-125468154D01*
X270295386Y-125372916D01*
X270343005Y-125230059D01*
X270343005Y-124991964D01*
X269438244Y-125944345D02*
X269390625Y-125991964D01*
X269343005Y-126087202D01*
X269343005Y-126325297D01*
X269390625Y-126420535D01*
X269438244Y-126468154D01*
X269533482Y-126515773D01*
X269628720Y-126515773D01*
X269771577Y-126468154D01*
X270343005Y-125896726D01*
X270343005Y-126515773D01*
X269343005Y-127420535D02*
X269343005Y-126944345D01*
X269819196Y-126896726D01*
X269771577Y-126944345D01*
X269723958Y-127039583D01*
X269723958Y-127277678D01*
X269771577Y-127372916D01*
X269819196Y-127420535D01*
X269914434Y-127468154D01*
X270152529Y-127468154D01*
X270247767Y-127420535D01*
X270295386Y-127372916D01*
X270343005Y-127277678D01*
X270343005Y-127039583D01*
X270295386Y-126944345D01*
X270247767Y-126896726D01*
%TO.C,D26*%
X289393005Y-124991964D02*
X288393005Y-124991964D01*
X288393005Y-125230059D01*
X288440625Y-125372916D01*
X288535863Y-125468154D01*
X288631101Y-125515773D01*
X288821577Y-125563392D01*
X288964434Y-125563392D01*
X289154910Y-125515773D01*
X289250148Y-125468154D01*
X289345386Y-125372916D01*
X289393005Y-125230059D01*
X289393005Y-124991964D01*
X288488244Y-125944345D02*
X288440625Y-125991964D01*
X288393005Y-126087202D01*
X288393005Y-126325297D01*
X288440625Y-126420535D01*
X288488244Y-126468154D01*
X288583482Y-126515773D01*
X288678720Y-126515773D01*
X288821577Y-126468154D01*
X289393005Y-125896726D01*
X289393005Y-126515773D01*
X288393005Y-127372916D02*
X288393005Y-127182440D01*
X288440625Y-127087202D01*
X288488244Y-127039583D01*
X288631101Y-126944345D01*
X288821577Y-126896726D01*
X289202529Y-126896726D01*
X289297767Y-126944345D01*
X289345386Y-126991964D01*
X289393005Y-127087202D01*
X289393005Y-127277678D01*
X289345386Y-127372916D01*
X289297767Y-127420535D01*
X289202529Y-127468154D01*
X288964434Y-127468154D01*
X288869196Y-127420535D01*
X288821577Y-127372916D01*
X288773958Y-127277678D01*
X288773958Y-127087202D01*
X288821577Y-126991964D01*
X288869196Y-126944345D01*
X288964434Y-126896726D01*
%TO.C,D27*%
X308443005Y-124991964D02*
X307443005Y-124991964D01*
X307443005Y-125230059D01*
X307490625Y-125372916D01*
X307585863Y-125468154D01*
X307681101Y-125515773D01*
X307871577Y-125563392D01*
X308014434Y-125563392D01*
X308204910Y-125515773D01*
X308300148Y-125468154D01*
X308395386Y-125372916D01*
X308443005Y-125230059D01*
X308443005Y-124991964D01*
X307538244Y-125944345D02*
X307490625Y-125991964D01*
X307443005Y-126087202D01*
X307443005Y-126325297D01*
X307490625Y-126420535D01*
X307538244Y-126468154D01*
X307633482Y-126515773D01*
X307728720Y-126515773D01*
X307871577Y-126468154D01*
X308443005Y-125896726D01*
X308443005Y-126515773D01*
X307443005Y-126849107D02*
X307443005Y-127515773D01*
X308443005Y-127087202D01*
%TO.C,D28*%
X327493005Y-124991964D02*
X326493005Y-124991964D01*
X326493005Y-125230059D01*
X326540625Y-125372916D01*
X326635863Y-125468154D01*
X326731101Y-125515773D01*
X326921577Y-125563392D01*
X327064434Y-125563392D01*
X327254910Y-125515773D01*
X327350148Y-125468154D01*
X327445386Y-125372916D01*
X327493005Y-125230059D01*
X327493005Y-124991964D01*
X326588244Y-125944345D02*
X326540625Y-125991964D01*
X326493005Y-126087202D01*
X326493005Y-126325297D01*
X326540625Y-126420535D01*
X326588244Y-126468154D01*
X326683482Y-126515773D01*
X326778720Y-126515773D01*
X326921577Y-126468154D01*
X327493005Y-125896726D01*
X327493005Y-126515773D01*
X326921577Y-127087202D02*
X326873958Y-126991964D01*
X326826339Y-126944345D01*
X326731101Y-126896726D01*
X326683482Y-126896726D01*
X326588244Y-126944345D01*
X326540625Y-126991964D01*
X326493005Y-127087202D01*
X326493005Y-127277678D01*
X326540625Y-127372916D01*
X326588244Y-127420535D01*
X326683482Y-127468154D01*
X326731101Y-127468154D01*
X326826339Y-127420535D01*
X326873958Y-127372916D01*
X326921577Y-127277678D01*
X326921577Y-127087202D01*
X326969196Y-126991964D01*
X327016815Y-126944345D01*
X327112053Y-126896726D01*
X327302529Y-126896726D01*
X327397767Y-126944345D01*
X327445386Y-126991964D01*
X327493005Y-127087202D01*
X327493005Y-127277678D01*
X327445386Y-127372916D01*
X327397767Y-127420535D01*
X327302529Y-127468154D01*
X327112053Y-127468154D01*
X327016815Y-127420535D01*
X326969196Y-127372916D01*
X326921577Y-127277678D01*
%TO.C,D29*%
X351305505Y-124991964D02*
X350305505Y-124991964D01*
X350305505Y-125230059D01*
X350353125Y-125372916D01*
X350448363Y-125468154D01*
X350543601Y-125515773D01*
X350734077Y-125563392D01*
X350876934Y-125563392D01*
X351067410Y-125515773D01*
X351162648Y-125468154D01*
X351257886Y-125372916D01*
X351305505Y-125230059D01*
X351305505Y-124991964D01*
X350400744Y-125944345D02*
X350353125Y-125991964D01*
X350305505Y-126087202D01*
X350305505Y-126325297D01*
X350353125Y-126420535D01*
X350400744Y-126468154D01*
X350495982Y-126515773D01*
X350591220Y-126515773D01*
X350734077Y-126468154D01*
X351305505Y-125896726D01*
X351305505Y-126515773D01*
X351305505Y-126991964D02*
X351305505Y-127182440D01*
X351257886Y-127277678D01*
X351210267Y-127325297D01*
X351067410Y-127420535D01*
X350876934Y-127468154D01*
X350495982Y-127468154D01*
X350400744Y-127420535D01*
X350353125Y-127372916D01*
X350305505Y-127277678D01*
X350305505Y-127087202D01*
X350353125Y-126991964D01*
X350400744Y-126944345D01*
X350495982Y-126896726D01*
X350734077Y-126896726D01*
X350829315Y-126944345D01*
X350876934Y-126991964D01*
X350924553Y-127087202D01*
X350924553Y-127277678D01*
X350876934Y-127372916D01*
X350829315Y-127420535D01*
X350734077Y-127468154D01*
%TO.C,D30*%
X375118005Y-124991964D02*
X374118005Y-124991964D01*
X374118005Y-125230059D01*
X374165625Y-125372916D01*
X374260863Y-125468154D01*
X374356101Y-125515773D01*
X374546577Y-125563392D01*
X374689434Y-125563392D01*
X374879910Y-125515773D01*
X374975148Y-125468154D01*
X375070386Y-125372916D01*
X375118005Y-125230059D01*
X375118005Y-124991964D01*
X374118005Y-125896726D02*
X374118005Y-126515773D01*
X374498958Y-126182440D01*
X374498958Y-126325297D01*
X374546577Y-126420535D01*
X374594196Y-126468154D01*
X374689434Y-126515773D01*
X374927529Y-126515773D01*
X375022767Y-126468154D01*
X375070386Y-126420535D01*
X375118005Y-126325297D01*
X375118005Y-126039583D01*
X375070386Y-125944345D01*
X375022767Y-125896726D01*
X374118005Y-127134821D02*
X374118005Y-127230059D01*
X374165625Y-127325297D01*
X374213244Y-127372916D01*
X374308482Y-127420535D01*
X374498958Y-127468154D01*
X374737053Y-127468154D01*
X374927529Y-127420535D01*
X375022767Y-127372916D01*
X375070386Y-127325297D01*
X375118005Y-127230059D01*
X375118005Y-127134821D01*
X375070386Y-127039583D01*
X375022767Y-126991964D01*
X374927529Y-126944345D01*
X374737053Y-126896726D01*
X374498958Y-126896726D01*
X374308482Y-126944345D01*
X374213244Y-126991964D01*
X374165625Y-127039583D01*
X374118005Y-127134821D01*
%TO.C,D31*%
X91749255Y-144041964D02*
X90749255Y-144041964D01*
X90749255Y-144280059D01*
X90796875Y-144422916D01*
X90892113Y-144518154D01*
X90987351Y-144565773D01*
X91177827Y-144613392D01*
X91320684Y-144613392D01*
X91511160Y-144565773D01*
X91606398Y-144518154D01*
X91701636Y-144422916D01*
X91749255Y-144280059D01*
X91749255Y-144041964D01*
X90749255Y-144946726D02*
X90749255Y-145565773D01*
X91130208Y-145232440D01*
X91130208Y-145375297D01*
X91177827Y-145470535D01*
X91225446Y-145518154D01*
X91320684Y-145565773D01*
X91558779Y-145565773D01*
X91654017Y-145518154D01*
X91701636Y-145470535D01*
X91749255Y-145375297D01*
X91749255Y-145089583D01*
X91701636Y-144994345D01*
X91654017Y-144946726D01*
X91749255Y-146518154D02*
X91749255Y-145946726D01*
X91749255Y-146232440D02*
X90749255Y-146232440D01*
X90892113Y-146137202D01*
X90987351Y-146041964D01*
X91034970Y-145946726D01*
%TO.C,D32*%
X122705505Y-144041964D02*
X121705505Y-144041964D01*
X121705505Y-144280059D01*
X121753125Y-144422916D01*
X121848363Y-144518154D01*
X121943601Y-144565773D01*
X122134077Y-144613392D01*
X122276934Y-144613392D01*
X122467410Y-144565773D01*
X122562648Y-144518154D01*
X122657886Y-144422916D01*
X122705505Y-144280059D01*
X122705505Y-144041964D01*
X121705505Y-144946726D02*
X121705505Y-145565773D01*
X122086458Y-145232440D01*
X122086458Y-145375297D01*
X122134077Y-145470535D01*
X122181696Y-145518154D01*
X122276934Y-145565773D01*
X122515029Y-145565773D01*
X122610267Y-145518154D01*
X122657886Y-145470535D01*
X122705505Y-145375297D01*
X122705505Y-145089583D01*
X122657886Y-144994345D01*
X122610267Y-144946726D01*
X121800744Y-145946726D02*
X121753125Y-145994345D01*
X121705505Y-146089583D01*
X121705505Y-146327678D01*
X121753125Y-146422916D01*
X121800744Y-146470535D01*
X121895982Y-146518154D01*
X121991220Y-146518154D01*
X122134077Y-146470535D01*
X122705505Y-145899107D01*
X122705505Y-146518154D01*
%TO.C,D33*%
X141755505Y-144041964D02*
X140755505Y-144041964D01*
X140755505Y-144280059D01*
X140803125Y-144422916D01*
X140898363Y-144518154D01*
X140993601Y-144565773D01*
X141184077Y-144613392D01*
X141326934Y-144613392D01*
X141517410Y-144565773D01*
X141612648Y-144518154D01*
X141707886Y-144422916D01*
X141755505Y-144280059D01*
X141755505Y-144041964D01*
X140755505Y-144946726D02*
X140755505Y-145565773D01*
X141136458Y-145232440D01*
X141136458Y-145375297D01*
X141184077Y-145470535D01*
X141231696Y-145518154D01*
X141326934Y-145565773D01*
X141565029Y-145565773D01*
X141660267Y-145518154D01*
X141707886Y-145470535D01*
X141755505Y-145375297D01*
X141755505Y-145089583D01*
X141707886Y-144994345D01*
X141660267Y-144946726D01*
X140755505Y-145899107D02*
X140755505Y-146518154D01*
X141136458Y-146184821D01*
X141136458Y-146327678D01*
X141184077Y-146422916D01*
X141231696Y-146470535D01*
X141326934Y-146518154D01*
X141565029Y-146518154D01*
X141660267Y-146470535D01*
X141707886Y-146422916D01*
X141755505Y-146327678D01*
X141755505Y-146041964D01*
X141707886Y-145946726D01*
X141660267Y-145899107D01*
%TO.C,D34*%
X160805505Y-144041964D02*
X159805505Y-144041964D01*
X159805505Y-144280059D01*
X159853125Y-144422916D01*
X159948363Y-144518154D01*
X160043601Y-144565773D01*
X160234077Y-144613392D01*
X160376934Y-144613392D01*
X160567410Y-144565773D01*
X160662648Y-144518154D01*
X160757886Y-144422916D01*
X160805505Y-144280059D01*
X160805505Y-144041964D01*
X159805505Y-144946726D02*
X159805505Y-145565773D01*
X160186458Y-145232440D01*
X160186458Y-145375297D01*
X160234077Y-145470535D01*
X160281696Y-145518154D01*
X160376934Y-145565773D01*
X160615029Y-145565773D01*
X160710267Y-145518154D01*
X160757886Y-145470535D01*
X160805505Y-145375297D01*
X160805505Y-145089583D01*
X160757886Y-144994345D01*
X160710267Y-144946726D01*
X160138839Y-146422916D02*
X160805505Y-146422916D01*
X159757886Y-146184821D02*
X160472172Y-145946726D01*
X160472172Y-146565773D01*
%TO.C,D35*%
X179855505Y-144041964D02*
X178855505Y-144041964D01*
X178855505Y-144280059D01*
X178903125Y-144422916D01*
X178998363Y-144518154D01*
X179093601Y-144565773D01*
X179284077Y-144613392D01*
X179426934Y-144613392D01*
X179617410Y-144565773D01*
X179712648Y-144518154D01*
X179807886Y-144422916D01*
X179855505Y-144280059D01*
X179855505Y-144041964D01*
X178855505Y-144946726D02*
X178855505Y-145565773D01*
X179236458Y-145232440D01*
X179236458Y-145375297D01*
X179284077Y-145470535D01*
X179331696Y-145518154D01*
X179426934Y-145565773D01*
X179665029Y-145565773D01*
X179760267Y-145518154D01*
X179807886Y-145470535D01*
X179855505Y-145375297D01*
X179855505Y-145089583D01*
X179807886Y-144994345D01*
X179760267Y-144946726D01*
X178855505Y-146470535D02*
X178855505Y-145994345D01*
X179331696Y-145946726D01*
X179284077Y-145994345D01*
X179236458Y-146089583D01*
X179236458Y-146327678D01*
X179284077Y-146422916D01*
X179331696Y-146470535D01*
X179426934Y-146518154D01*
X179665029Y-146518154D01*
X179760267Y-146470535D01*
X179807886Y-146422916D01*
X179855505Y-146327678D01*
X179855505Y-146089583D01*
X179807886Y-145994345D01*
X179760267Y-145946726D01*
%TO.C,D36*%
X198905505Y-144041964D02*
X197905505Y-144041964D01*
X197905505Y-144280059D01*
X197953125Y-144422916D01*
X198048363Y-144518154D01*
X198143601Y-144565773D01*
X198334077Y-144613392D01*
X198476934Y-144613392D01*
X198667410Y-144565773D01*
X198762648Y-144518154D01*
X198857886Y-144422916D01*
X198905505Y-144280059D01*
X198905505Y-144041964D01*
X197905505Y-144946726D02*
X197905505Y-145565773D01*
X198286458Y-145232440D01*
X198286458Y-145375297D01*
X198334077Y-145470535D01*
X198381696Y-145518154D01*
X198476934Y-145565773D01*
X198715029Y-145565773D01*
X198810267Y-145518154D01*
X198857886Y-145470535D01*
X198905505Y-145375297D01*
X198905505Y-145089583D01*
X198857886Y-144994345D01*
X198810267Y-144946726D01*
X197905505Y-146422916D02*
X197905505Y-146232440D01*
X197953125Y-146137202D01*
X198000744Y-146089583D01*
X198143601Y-145994345D01*
X198334077Y-145946726D01*
X198715029Y-145946726D01*
X198810267Y-145994345D01*
X198857886Y-146041964D01*
X198905505Y-146137202D01*
X198905505Y-146327678D01*
X198857886Y-146422916D01*
X198810267Y-146470535D01*
X198715029Y-146518154D01*
X198476934Y-146518154D01*
X198381696Y-146470535D01*
X198334077Y-146422916D01*
X198286458Y-146327678D01*
X198286458Y-146137202D01*
X198334077Y-146041964D01*
X198381696Y-145994345D01*
X198476934Y-145946726D01*
%TO.C,D37*%
X217955505Y-144041964D02*
X216955505Y-144041964D01*
X216955505Y-144280059D01*
X217003125Y-144422916D01*
X217098363Y-144518154D01*
X217193601Y-144565773D01*
X217384077Y-144613392D01*
X217526934Y-144613392D01*
X217717410Y-144565773D01*
X217812648Y-144518154D01*
X217907886Y-144422916D01*
X217955505Y-144280059D01*
X217955505Y-144041964D01*
X216955505Y-144946726D02*
X216955505Y-145565773D01*
X217336458Y-145232440D01*
X217336458Y-145375297D01*
X217384077Y-145470535D01*
X217431696Y-145518154D01*
X217526934Y-145565773D01*
X217765029Y-145565773D01*
X217860267Y-145518154D01*
X217907886Y-145470535D01*
X217955505Y-145375297D01*
X217955505Y-145089583D01*
X217907886Y-144994345D01*
X217860267Y-144946726D01*
X216955505Y-145899107D02*
X216955505Y-146565773D01*
X217955505Y-146137202D01*
%TO.C,D38*%
X237005505Y-144041964D02*
X236005505Y-144041964D01*
X236005505Y-144280059D01*
X236053125Y-144422916D01*
X236148363Y-144518154D01*
X236243601Y-144565773D01*
X236434077Y-144613392D01*
X236576934Y-144613392D01*
X236767410Y-144565773D01*
X236862648Y-144518154D01*
X236957886Y-144422916D01*
X237005505Y-144280059D01*
X237005505Y-144041964D01*
X236005505Y-144946726D02*
X236005505Y-145565773D01*
X236386458Y-145232440D01*
X236386458Y-145375297D01*
X236434077Y-145470535D01*
X236481696Y-145518154D01*
X236576934Y-145565773D01*
X236815029Y-145565773D01*
X236910267Y-145518154D01*
X236957886Y-145470535D01*
X237005505Y-145375297D01*
X237005505Y-145089583D01*
X236957886Y-144994345D01*
X236910267Y-144946726D01*
X236434077Y-146137202D02*
X236386458Y-146041964D01*
X236338839Y-145994345D01*
X236243601Y-145946726D01*
X236195982Y-145946726D01*
X236100744Y-145994345D01*
X236053125Y-146041964D01*
X236005505Y-146137202D01*
X236005505Y-146327678D01*
X236053125Y-146422916D01*
X236100744Y-146470535D01*
X236195982Y-146518154D01*
X236243601Y-146518154D01*
X236338839Y-146470535D01*
X236386458Y-146422916D01*
X236434077Y-146327678D01*
X236434077Y-146137202D01*
X236481696Y-146041964D01*
X236529315Y-145994345D01*
X236624553Y-145946726D01*
X236815029Y-145946726D01*
X236910267Y-145994345D01*
X236957886Y-146041964D01*
X237005505Y-146137202D01*
X237005505Y-146327678D01*
X236957886Y-146422916D01*
X236910267Y-146470535D01*
X236815029Y-146518154D01*
X236624553Y-146518154D01*
X236529315Y-146470535D01*
X236481696Y-146422916D01*
X236434077Y-146327678D01*
%TO.C,D39*%
X256055505Y-144041964D02*
X255055505Y-144041964D01*
X255055505Y-144280059D01*
X255103125Y-144422916D01*
X255198363Y-144518154D01*
X255293601Y-144565773D01*
X255484077Y-144613392D01*
X255626934Y-144613392D01*
X255817410Y-144565773D01*
X255912648Y-144518154D01*
X256007886Y-144422916D01*
X256055505Y-144280059D01*
X256055505Y-144041964D01*
X255055505Y-144946726D02*
X255055505Y-145565773D01*
X255436458Y-145232440D01*
X255436458Y-145375297D01*
X255484077Y-145470535D01*
X255531696Y-145518154D01*
X255626934Y-145565773D01*
X255865029Y-145565773D01*
X255960267Y-145518154D01*
X256007886Y-145470535D01*
X256055505Y-145375297D01*
X256055505Y-145089583D01*
X256007886Y-144994345D01*
X255960267Y-144946726D01*
X256055505Y-146041964D02*
X256055505Y-146232440D01*
X256007886Y-146327678D01*
X255960267Y-146375297D01*
X255817410Y-146470535D01*
X255626934Y-146518154D01*
X255245982Y-146518154D01*
X255150744Y-146470535D01*
X255103125Y-146422916D01*
X255055505Y-146327678D01*
X255055505Y-146137202D01*
X255103125Y-146041964D01*
X255150744Y-145994345D01*
X255245982Y-145946726D01*
X255484077Y-145946726D01*
X255579315Y-145994345D01*
X255626934Y-146041964D01*
X255674553Y-146137202D01*
X255674553Y-146327678D01*
X255626934Y-146422916D01*
X255579315Y-146470535D01*
X255484077Y-146518154D01*
%TO.C,D40*%
X275105505Y-144041964D02*
X274105505Y-144041964D01*
X274105505Y-144280059D01*
X274153125Y-144422916D01*
X274248363Y-144518154D01*
X274343601Y-144565773D01*
X274534077Y-144613392D01*
X274676934Y-144613392D01*
X274867410Y-144565773D01*
X274962648Y-144518154D01*
X275057886Y-144422916D01*
X275105505Y-144280059D01*
X275105505Y-144041964D01*
X274438839Y-145470535D02*
X275105505Y-145470535D01*
X274057886Y-145232440D02*
X274772172Y-144994345D01*
X274772172Y-145613392D01*
X274105505Y-146184821D02*
X274105505Y-146280059D01*
X274153125Y-146375297D01*
X274200744Y-146422916D01*
X274295982Y-146470535D01*
X274486458Y-146518154D01*
X274724553Y-146518154D01*
X274915029Y-146470535D01*
X275010267Y-146422916D01*
X275057886Y-146375297D01*
X275105505Y-146280059D01*
X275105505Y-146184821D01*
X275057886Y-146089583D01*
X275010267Y-146041964D01*
X274915029Y-145994345D01*
X274724553Y-145946726D01*
X274486458Y-145946726D01*
X274295982Y-145994345D01*
X274200744Y-146041964D01*
X274153125Y-146089583D01*
X274105505Y-146184821D01*
%TO.C,D41*%
X294155505Y-144041964D02*
X293155505Y-144041964D01*
X293155505Y-144280059D01*
X293203125Y-144422916D01*
X293298363Y-144518154D01*
X293393601Y-144565773D01*
X293584077Y-144613392D01*
X293726934Y-144613392D01*
X293917410Y-144565773D01*
X294012648Y-144518154D01*
X294107886Y-144422916D01*
X294155505Y-144280059D01*
X294155505Y-144041964D01*
X293488839Y-145470535D02*
X294155505Y-145470535D01*
X293107886Y-145232440D02*
X293822172Y-144994345D01*
X293822172Y-145613392D01*
X294155505Y-146518154D02*
X294155505Y-145946726D01*
X294155505Y-146232440D02*
X293155505Y-146232440D01*
X293298363Y-146137202D01*
X293393601Y-146041964D01*
X293441220Y-145946726D01*
%TO.C,D42*%
X313205505Y-144041964D02*
X312205505Y-144041964D01*
X312205505Y-144280059D01*
X312253125Y-144422916D01*
X312348363Y-144518154D01*
X312443601Y-144565773D01*
X312634077Y-144613392D01*
X312776934Y-144613392D01*
X312967410Y-144565773D01*
X313062648Y-144518154D01*
X313157886Y-144422916D01*
X313205505Y-144280059D01*
X313205505Y-144041964D01*
X312538839Y-145470535D02*
X313205505Y-145470535D01*
X312157886Y-145232440D02*
X312872172Y-144994345D01*
X312872172Y-145613392D01*
X312300744Y-145946726D02*
X312253125Y-145994345D01*
X312205505Y-146089583D01*
X312205505Y-146327678D01*
X312253125Y-146422916D01*
X312300744Y-146470535D01*
X312395982Y-146518154D01*
X312491220Y-146518154D01*
X312634077Y-146470535D01*
X313205505Y-145899107D01*
X313205505Y-146518154D01*
%TO.C,D43*%
X344161755Y-144041964D02*
X343161755Y-144041964D01*
X343161755Y-144280059D01*
X343209375Y-144422916D01*
X343304613Y-144518154D01*
X343399851Y-144565773D01*
X343590327Y-144613392D01*
X343733184Y-144613392D01*
X343923660Y-144565773D01*
X344018898Y-144518154D01*
X344114136Y-144422916D01*
X344161755Y-144280059D01*
X344161755Y-144041964D01*
X343495089Y-145470535D02*
X344161755Y-145470535D01*
X343114136Y-145232440D02*
X343828422Y-144994345D01*
X343828422Y-145613392D01*
X343161755Y-145899107D02*
X343161755Y-146518154D01*
X343542708Y-146184821D01*
X343542708Y-146327678D01*
X343590327Y-146422916D01*
X343637946Y-146470535D01*
X343733184Y-146518154D01*
X343971279Y-146518154D01*
X344066517Y-146470535D01*
X344114136Y-146422916D01*
X344161755Y-146327678D01*
X344161755Y-146041964D01*
X344114136Y-145946726D01*
X344066517Y-145899107D01*
%TO.C,D44*%
X375118005Y-144041964D02*
X374118005Y-144041964D01*
X374118005Y-144280059D01*
X374165625Y-144422916D01*
X374260863Y-144518154D01*
X374356101Y-144565773D01*
X374546577Y-144613392D01*
X374689434Y-144613392D01*
X374879910Y-144565773D01*
X374975148Y-144518154D01*
X375070386Y-144422916D01*
X375118005Y-144280059D01*
X375118005Y-144041964D01*
X374451339Y-145470535D02*
X375118005Y-145470535D01*
X374070386Y-145232440D02*
X374784672Y-144994345D01*
X374784672Y-145613392D01*
X374451339Y-146422916D02*
X375118005Y-146422916D01*
X374070386Y-146184821D02*
X374784672Y-145946726D01*
X374784672Y-146565773D01*
%TO.C,D45*%
X101274255Y-163091964D02*
X100274255Y-163091964D01*
X100274255Y-163330059D01*
X100321875Y-163472916D01*
X100417113Y-163568154D01*
X100512351Y-163615773D01*
X100702827Y-163663392D01*
X100845684Y-163663392D01*
X101036160Y-163615773D01*
X101131398Y-163568154D01*
X101226636Y-163472916D01*
X101274255Y-163330059D01*
X101274255Y-163091964D01*
X100607589Y-164520535D02*
X101274255Y-164520535D01*
X100226636Y-164282440D02*
X100940922Y-164044345D01*
X100940922Y-164663392D01*
X100274255Y-165520535D02*
X100274255Y-165044345D01*
X100750446Y-164996726D01*
X100702827Y-165044345D01*
X100655208Y-165139583D01*
X100655208Y-165377678D01*
X100702827Y-165472916D01*
X100750446Y-165520535D01*
X100845684Y-165568154D01*
X101083779Y-165568154D01*
X101179017Y-165520535D01*
X101226636Y-165472916D01*
X101274255Y-165377678D01*
X101274255Y-165139583D01*
X101226636Y-165044345D01*
X101179017Y-164996726D01*
%TO.C,D46*%
X132230505Y-163091964D02*
X131230505Y-163091964D01*
X131230505Y-163330059D01*
X131278125Y-163472916D01*
X131373363Y-163568154D01*
X131468601Y-163615773D01*
X131659077Y-163663392D01*
X131801934Y-163663392D01*
X131992410Y-163615773D01*
X132087648Y-163568154D01*
X132182886Y-163472916D01*
X132230505Y-163330059D01*
X132230505Y-163091964D01*
X131563839Y-164520535D02*
X132230505Y-164520535D01*
X131182886Y-164282440D02*
X131897172Y-164044345D01*
X131897172Y-164663392D01*
X131230505Y-165472916D02*
X131230505Y-165282440D01*
X131278125Y-165187202D01*
X131325744Y-165139583D01*
X131468601Y-165044345D01*
X131659077Y-164996726D01*
X132040029Y-164996726D01*
X132135267Y-165044345D01*
X132182886Y-165091964D01*
X132230505Y-165187202D01*
X132230505Y-165377678D01*
X132182886Y-165472916D01*
X132135267Y-165520535D01*
X132040029Y-165568154D01*
X131801934Y-165568154D01*
X131706696Y-165520535D01*
X131659077Y-165472916D01*
X131611458Y-165377678D01*
X131611458Y-165187202D01*
X131659077Y-165091964D01*
X131706696Y-165044345D01*
X131801934Y-164996726D01*
%TO.C,D47*%
X151280505Y-163091964D02*
X150280505Y-163091964D01*
X150280505Y-163330059D01*
X150328125Y-163472916D01*
X150423363Y-163568154D01*
X150518601Y-163615773D01*
X150709077Y-163663392D01*
X150851934Y-163663392D01*
X151042410Y-163615773D01*
X151137648Y-163568154D01*
X151232886Y-163472916D01*
X151280505Y-163330059D01*
X151280505Y-163091964D01*
X150613839Y-164520535D02*
X151280505Y-164520535D01*
X150232886Y-164282440D02*
X150947172Y-164044345D01*
X150947172Y-164663392D01*
X150280505Y-164949107D02*
X150280505Y-165615773D01*
X151280505Y-165187202D01*
%TO.C,D48*%
X170330505Y-163091964D02*
X169330505Y-163091964D01*
X169330505Y-163330059D01*
X169378125Y-163472916D01*
X169473363Y-163568154D01*
X169568601Y-163615773D01*
X169759077Y-163663392D01*
X169901934Y-163663392D01*
X170092410Y-163615773D01*
X170187648Y-163568154D01*
X170282886Y-163472916D01*
X170330505Y-163330059D01*
X170330505Y-163091964D01*
X169663839Y-164520535D02*
X170330505Y-164520535D01*
X169282886Y-164282440D02*
X169997172Y-164044345D01*
X169997172Y-164663392D01*
X169759077Y-165187202D02*
X169711458Y-165091964D01*
X169663839Y-165044345D01*
X169568601Y-164996726D01*
X169520982Y-164996726D01*
X169425744Y-165044345D01*
X169378125Y-165091964D01*
X169330505Y-165187202D01*
X169330505Y-165377678D01*
X169378125Y-165472916D01*
X169425744Y-165520535D01*
X169520982Y-165568154D01*
X169568601Y-165568154D01*
X169663839Y-165520535D01*
X169711458Y-165472916D01*
X169759077Y-165377678D01*
X169759077Y-165187202D01*
X169806696Y-165091964D01*
X169854315Y-165044345D01*
X169949553Y-164996726D01*
X170140029Y-164996726D01*
X170235267Y-165044345D01*
X170282886Y-165091964D01*
X170330505Y-165187202D01*
X170330505Y-165377678D01*
X170282886Y-165472916D01*
X170235267Y-165520535D01*
X170140029Y-165568154D01*
X169949553Y-165568154D01*
X169854315Y-165520535D01*
X169806696Y-165472916D01*
X169759077Y-165377678D01*
%TO.C,D49*%
X189380505Y-163091964D02*
X188380505Y-163091964D01*
X188380505Y-163330059D01*
X188428125Y-163472916D01*
X188523363Y-163568154D01*
X188618601Y-163615773D01*
X188809077Y-163663392D01*
X188951934Y-163663392D01*
X189142410Y-163615773D01*
X189237648Y-163568154D01*
X189332886Y-163472916D01*
X189380505Y-163330059D01*
X189380505Y-163091964D01*
X188713839Y-164520535D02*
X189380505Y-164520535D01*
X188332886Y-164282440D02*
X189047172Y-164044345D01*
X189047172Y-164663392D01*
X189380505Y-165091964D02*
X189380505Y-165282440D01*
X189332886Y-165377678D01*
X189285267Y-165425297D01*
X189142410Y-165520535D01*
X188951934Y-165568154D01*
X188570982Y-165568154D01*
X188475744Y-165520535D01*
X188428125Y-165472916D01*
X188380505Y-165377678D01*
X188380505Y-165187202D01*
X188428125Y-165091964D01*
X188475744Y-165044345D01*
X188570982Y-164996726D01*
X188809077Y-164996726D01*
X188904315Y-165044345D01*
X188951934Y-165091964D01*
X188999553Y-165187202D01*
X188999553Y-165377678D01*
X188951934Y-165472916D01*
X188904315Y-165520535D01*
X188809077Y-165568154D01*
%TO.C,D50*%
X208430505Y-163091964D02*
X207430505Y-163091964D01*
X207430505Y-163330059D01*
X207478125Y-163472916D01*
X207573363Y-163568154D01*
X207668601Y-163615773D01*
X207859077Y-163663392D01*
X208001934Y-163663392D01*
X208192410Y-163615773D01*
X208287648Y-163568154D01*
X208382886Y-163472916D01*
X208430505Y-163330059D01*
X208430505Y-163091964D01*
X207430505Y-164568154D02*
X207430505Y-164091964D01*
X207906696Y-164044345D01*
X207859077Y-164091964D01*
X207811458Y-164187202D01*
X207811458Y-164425297D01*
X207859077Y-164520535D01*
X207906696Y-164568154D01*
X208001934Y-164615773D01*
X208240029Y-164615773D01*
X208335267Y-164568154D01*
X208382886Y-164520535D01*
X208430505Y-164425297D01*
X208430505Y-164187202D01*
X208382886Y-164091964D01*
X208335267Y-164044345D01*
X207430505Y-165234821D02*
X207430505Y-165330059D01*
X207478125Y-165425297D01*
X207525744Y-165472916D01*
X207620982Y-165520535D01*
X207811458Y-165568154D01*
X208049553Y-165568154D01*
X208240029Y-165520535D01*
X208335267Y-165472916D01*
X208382886Y-165425297D01*
X208430505Y-165330059D01*
X208430505Y-165234821D01*
X208382886Y-165139583D01*
X208335267Y-165091964D01*
X208240029Y-165044345D01*
X208049553Y-164996726D01*
X207811458Y-164996726D01*
X207620982Y-165044345D01*
X207525744Y-165091964D01*
X207478125Y-165139583D01*
X207430505Y-165234821D01*
%TO.C,D51*%
X227480505Y-163091964D02*
X226480505Y-163091964D01*
X226480505Y-163330059D01*
X226528125Y-163472916D01*
X226623363Y-163568154D01*
X226718601Y-163615773D01*
X226909077Y-163663392D01*
X227051934Y-163663392D01*
X227242410Y-163615773D01*
X227337648Y-163568154D01*
X227432886Y-163472916D01*
X227480505Y-163330059D01*
X227480505Y-163091964D01*
X226480505Y-164568154D02*
X226480505Y-164091964D01*
X226956696Y-164044345D01*
X226909077Y-164091964D01*
X226861458Y-164187202D01*
X226861458Y-164425297D01*
X226909077Y-164520535D01*
X226956696Y-164568154D01*
X227051934Y-164615773D01*
X227290029Y-164615773D01*
X227385267Y-164568154D01*
X227432886Y-164520535D01*
X227480505Y-164425297D01*
X227480505Y-164187202D01*
X227432886Y-164091964D01*
X227385267Y-164044345D01*
X227480505Y-165568154D02*
X227480505Y-164996726D01*
X227480505Y-165282440D02*
X226480505Y-165282440D01*
X226623363Y-165187202D01*
X226718601Y-165091964D01*
X226766220Y-164996726D01*
%TO.C,D52*%
X246530505Y-163091964D02*
X245530505Y-163091964D01*
X245530505Y-163330059D01*
X245578125Y-163472916D01*
X245673363Y-163568154D01*
X245768601Y-163615773D01*
X245959077Y-163663392D01*
X246101934Y-163663392D01*
X246292410Y-163615773D01*
X246387648Y-163568154D01*
X246482886Y-163472916D01*
X246530505Y-163330059D01*
X246530505Y-163091964D01*
X245530505Y-164568154D02*
X245530505Y-164091964D01*
X246006696Y-164044345D01*
X245959077Y-164091964D01*
X245911458Y-164187202D01*
X245911458Y-164425297D01*
X245959077Y-164520535D01*
X246006696Y-164568154D01*
X246101934Y-164615773D01*
X246340029Y-164615773D01*
X246435267Y-164568154D01*
X246482886Y-164520535D01*
X246530505Y-164425297D01*
X246530505Y-164187202D01*
X246482886Y-164091964D01*
X246435267Y-164044345D01*
X245625744Y-164996726D02*
X245578125Y-165044345D01*
X245530505Y-165139583D01*
X245530505Y-165377678D01*
X245578125Y-165472916D01*
X245625744Y-165520535D01*
X245720982Y-165568154D01*
X245816220Y-165568154D01*
X245959077Y-165520535D01*
X246530505Y-164949107D01*
X246530505Y-165568154D01*
%TO.C,D53*%
X265580505Y-163091964D02*
X264580505Y-163091964D01*
X264580505Y-163330059D01*
X264628125Y-163472916D01*
X264723363Y-163568154D01*
X264818601Y-163615773D01*
X265009077Y-163663392D01*
X265151934Y-163663392D01*
X265342410Y-163615773D01*
X265437648Y-163568154D01*
X265532886Y-163472916D01*
X265580505Y-163330059D01*
X265580505Y-163091964D01*
X264580505Y-164568154D02*
X264580505Y-164091964D01*
X265056696Y-164044345D01*
X265009077Y-164091964D01*
X264961458Y-164187202D01*
X264961458Y-164425297D01*
X265009077Y-164520535D01*
X265056696Y-164568154D01*
X265151934Y-164615773D01*
X265390029Y-164615773D01*
X265485267Y-164568154D01*
X265532886Y-164520535D01*
X265580505Y-164425297D01*
X265580505Y-164187202D01*
X265532886Y-164091964D01*
X265485267Y-164044345D01*
X264580505Y-164949107D02*
X264580505Y-165568154D01*
X264961458Y-165234821D01*
X264961458Y-165377678D01*
X265009077Y-165472916D01*
X265056696Y-165520535D01*
X265151934Y-165568154D01*
X265390029Y-165568154D01*
X265485267Y-165520535D01*
X265532886Y-165472916D01*
X265580505Y-165377678D01*
X265580505Y-165091964D01*
X265532886Y-164996726D01*
X265485267Y-164949107D01*
%TO.C,D54*%
X284630505Y-163091964D02*
X283630505Y-163091964D01*
X283630505Y-163330059D01*
X283678125Y-163472916D01*
X283773363Y-163568154D01*
X283868601Y-163615773D01*
X284059077Y-163663392D01*
X284201934Y-163663392D01*
X284392410Y-163615773D01*
X284487648Y-163568154D01*
X284582886Y-163472916D01*
X284630505Y-163330059D01*
X284630505Y-163091964D01*
X283630505Y-164568154D02*
X283630505Y-164091964D01*
X284106696Y-164044345D01*
X284059077Y-164091964D01*
X284011458Y-164187202D01*
X284011458Y-164425297D01*
X284059077Y-164520535D01*
X284106696Y-164568154D01*
X284201934Y-164615773D01*
X284440029Y-164615773D01*
X284535267Y-164568154D01*
X284582886Y-164520535D01*
X284630505Y-164425297D01*
X284630505Y-164187202D01*
X284582886Y-164091964D01*
X284535267Y-164044345D01*
X283963839Y-165472916D02*
X284630505Y-165472916D01*
X283582886Y-165234821D02*
X284297172Y-164996726D01*
X284297172Y-165615773D01*
%TO.C,D55*%
X303680505Y-163091964D02*
X302680505Y-163091964D01*
X302680505Y-163330059D01*
X302728125Y-163472916D01*
X302823363Y-163568154D01*
X302918601Y-163615773D01*
X303109077Y-163663392D01*
X303251934Y-163663392D01*
X303442410Y-163615773D01*
X303537648Y-163568154D01*
X303632886Y-163472916D01*
X303680505Y-163330059D01*
X303680505Y-163091964D01*
X302680505Y-164568154D02*
X302680505Y-164091964D01*
X303156696Y-164044345D01*
X303109077Y-164091964D01*
X303061458Y-164187202D01*
X303061458Y-164425297D01*
X303109077Y-164520535D01*
X303156696Y-164568154D01*
X303251934Y-164615773D01*
X303490029Y-164615773D01*
X303585267Y-164568154D01*
X303632886Y-164520535D01*
X303680505Y-164425297D01*
X303680505Y-164187202D01*
X303632886Y-164091964D01*
X303585267Y-164044345D01*
X302680505Y-165520535D02*
X302680505Y-165044345D01*
X303156696Y-164996726D01*
X303109077Y-165044345D01*
X303061458Y-165139583D01*
X303061458Y-165377678D01*
X303109077Y-165472916D01*
X303156696Y-165520535D01*
X303251934Y-165568154D01*
X303490029Y-165568154D01*
X303585267Y-165520535D01*
X303632886Y-165472916D01*
X303680505Y-165377678D01*
X303680505Y-165139583D01*
X303632886Y-165044345D01*
X303585267Y-164996726D01*
%TO.C,D56*%
X329874255Y-163091964D02*
X328874255Y-163091964D01*
X328874255Y-163330059D01*
X328921875Y-163472916D01*
X329017113Y-163568154D01*
X329112351Y-163615773D01*
X329302827Y-163663392D01*
X329445684Y-163663392D01*
X329636160Y-163615773D01*
X329731398Y-163568154D01*
X329826636Y-163472916D01*
X329874255Y-163330059D01*
X329874255Y-163091964D01*
X328874255Y-164568154D02*
X328874255Y-164091964D01*
X329350446Y-164044345D01*
X329302827Y-164091964D01*
X329255208Y-164187202D01*
X329255208Y-164425297D01*
X329302827Y-164520535D01*
X329350446Y-164568154D01*
X329445684Y-164615773D01*
X329683779Y-164615773D01*
X329779017Y-164568154D01*
X329826636Y-164520535D01*
X329874255Y-164425297D01*
X329874255Y-164187202D01*
X329826636Y-164091964D01*
X329779017Y-164044345D01*
X328874255Y-165472916D02*
X328874255Y-165282440D01*
X328921875Y-165187202D01*
X328969494Y-165139583D01*
X329112351Y-165044345D01*
X329302827Y-164996726D01*
X329683779Y-164996726D01*
X329779017Y-165044345D01*
X329826636Y-165091964D01*
X329874255Y-165187202D01*
X329874255Y-165377678D01*
X329826636Y-165472916D01*
X329779017Y-165520535D01*
X329683779Y-165568154D01*
X329445684Y-165568154D01*
X329350446Y-165520535D01*
X329302827Y-165472916D01*
X329255208Y-165377678D01*
X329255208Y-165187202D01*
X329302827Y-165091964D01*
X329350446Y-165044345D01*
X329445684Y-164996726D01*
%TO.C,D57*%
X356068005Y-163091964D02*
X355068005Y-163091964D01*
X355068005Y-163330059D01*
X355115625Y-163472916D01*
X355210863Y-163568154D01*
X355306101Y-163615773D01*
X355496577Y-163663392D01*
X355639434Y-163663392D01*
X355829910Y-163615773D01*
X355925148Y-163568154D01*
X356020386Y-163472916D01*
X356068005Y-163330059D01*
X356068005Y-163091964D01*
X355068005Y-164568154D02*
X355068005Y-164091964D01*
X355544196Y-164044345D01*
X355496577Y-164091964D01*
X355448958Y-164187202D01*
X355448958Y-164425297D01*
X355496577Y-164520535D01*
X355544196Y-164568154D01*
X355639434Y-164615773D01*
X355877529Y-164615773D01*
X355972767Y-164568154D01*
X356020386Y-164520535D01*
X356068005Y-164425297D01*
X356068005Y-164187202D01*
X356020386Y-164091964D01*
X355972767Y-164044345D01*
X355068005Y-164949107D02*
X355068005Y-165615773D01*
X356068005Y-165187202D01*
%TO.C,D58*%
X375118005Y-163091964D02*
X374118005Y-163091964D01*
X374118005Y-163330059D01*
X374165625Y-163472916D01*
X374260863Y-163568154D01*
X374356101Y-163615773D01*
X374546577Y-163663392D01*
X374689434Y-163663392D01*
X374879910Y-163615773D01*
X374975148Y-163568154D01*
X375070386Y-163472916D01*
X375118005Y-163330059D01*
X375118005Y-163091964D01*
X374118005Y-164568154D02*
X374118005Y-164091964D01*
X374594196Y-164044345D01*
X374546577Y-164091964D01*
X374498958Y-164187202D01*
X374498958Y-164425297D01*
X374546577Y-164520535D01*
X374594196Y-164568154D01*
X374689434Y-164615773D01*
X374927529Y-164615773D01*
X375022767Y-164568154D01*
X375070386Y-164520535D01*
X375118005Y-164425297D01*
X375118005Y-164187202D01*
X375070386Y-164091964D01*
X375022767Y-164044345D01*
X374546577Y-165187202D02*
X374498958Y-165091964D01*
X374451339Y-165044345D01*
X374356101Y-164996726D01*
X374308482Y-164996726D01*
X374213244Y-165044345D01*
X374165625Y-165091964D01*
X374118005Y-165187202D01*
X374118005Y-165377678D01*
X374165625Y-165472916D01*
X374213244Y-165520535D01*
X374308482Y-165568154D01*
X374356101Y-165568154D01*
X374451339Y-165520535D01*
X374498958Y-165472916D01*
X374546577Y-165377678D01*
X374546577Y-165187202D01*
X374594196Y-165091964D01*
X374641815Y-165044345D01*
X374737053Y-164996726D01*
X374927529Y-164996726D01*
X375022767Y-165044345D01*
X375070386Y-165091964D01*
X375118005Y-165187202D01*
X375118005Y-165377678D01*
X375070386Y-165472916D01*
X375022767Y-165520535D01*
X374927529Y-165568154D01*
X374737053Y-165568154D01*
X374641815Y-165520535D01*
X374594196Y-165472916D01*
X374546577Y-165377678D01*
%TO.C,D59*%
X94130505Y-182141964D02*
X93130505Y-182141964D01*
X93130505Y-182380059D01*
X93178125Y-182522916D01*
X93273363Y-182618154D01*
X93368601Y-182665773D01*
X93559077Y-182713392D01*
X93701934Y-182713392D01*
X93892410Y-182665773D01*
X93987648Y-182618154D01*
X94082886Y-182522916D01*
X94130505Y-182380059D01*
X94130505Y-182141964D01*
X93130505Y-183618154D02*
X93130505Y-183141964D01*
X93606696Y-183094345D01*
X93559077Y-183141964D01*
X93511458Y-183237202D01*
X93511458Y-183475297D01*
X93559077Y-183570535D01*
X93606696Y-183618154D01*
X93701934Y-183665773D01*
X93940029Y-183665773D01*
X94035267Y-183618154D01*
X94082886Y-183570535D01*
X94130505Y-183475297D01*
X94130505Y-183237202D01*
X94082886Y-183141964D01*
X94035267Y-183094345D01*
X94130505Y-184141964D02*
X94130505Y-184332440D01*
X94082886Y-184427678D01*
X94035267Y-184475297D01*
X93892410Y-184570535D01*
X93701934Y-184618154D01*
X93320982Y-184618154D01*
X93225744Y-184570535D01*
X93178125Y-184522916D01*
X93130505Y-184427678D01*
X93130505Y-184237202D01*
X93178125Y-184141964D01*
X93225744Y-184094345D01*
X93320982Y-184046726D01*
X93559077Y-184046726D01*
X93654315Y-184094345D01*
X93701934Y-184141964D01*
X93749553Y-184237202D01*
X93749553Y-184427678D01*
X93701934Y-184522916D01*
X93654315Y-184570535D01*
X93559077Y-184618154D01*
%TO.C,D60*%
X117943005Y-182141964D02*
X116943005Y-182141964D01*
X116943005Y-182380059D01*
X116990625Y-182522916D01*
X117085863Y-182618154D01*
X117181101Y-182665773D01*
X117371577Y-182713392D01*
X117514434Y-182713392D01*
X117704910Y-182665773D01*
X117800148Y-182618154D01*
X117895386Y-182522916D01*
X117943005Y-182380059D01*
X117943005Y-182141964D01*
X116943005Y-183570535D02*
X116943005Y-183380059D01*
X116990625Y-183284821D01*
X117038244Y-183237202D01*
X117181101Y-183141964D01*
X117371577Y-183094345D01*
X117752529Y-183094345D01*
X117847767Y-183141964D01*
X117895386Y-183189583D01*
X117943005Y-183284821D01*
X117943005Y-183475297D01*
X117895386Y-183570535D01*
X117847767Y-183618154D01*
X117752529Y-183665773D01*
X117514434Y-183665773D01*
X117419196Y-183618154D01*
X117371577Y-183570535D01*
X117323958Y-183475297D01*
X117323958Y-183284821D01*
X117371577Y-183189583D01*
X117419196Y-183141964D01*
X117514434Y-183094345D01*
X116943005Y-184284821D02*
X116943005Y-184380059D01*
X116990625Y-184475297D01*
X117038244Y-184522916D01*
X117133482Y-184570535D01*
X117323958Y-184618154D01*
X117562053Y-184618154D01*
X117752529Y-184570535D01*
X117847767Y-184522916D01*
X117895386Y-184475297D01*
X117943005Y-184380059D01*
X117943005Y-184284821D01*
X117895386Y-184189583D01*
X117847767Y-184141964D01*
X117752529Y-184094345D01*
X117562053Y-184046726D01*
X117323958Y-184046726D01*
X117133482Y-184094345D01*
X117038244Y-184141964D01*
X116990625Y-184189583D01*
X116943005Y-184284821D01*
%TO.C,D61*%
X141755505Y-182141964D02*
X140755505Y-182141964D01*
X140755505Y-182380059D01*
X140803125Y-182522916D01*
X140898363Y-182618154D01*
X140993601Y-182665773D01*
X141184077Y-182713392D01*
X141326934Y-182713392D01*
X141517410Y-182665773D01*
X141612648Y-182618154D01*
X141707886Y-182522916D01*
X141755505Y-182380059D01*
X141755505Y-182141964D01*
X140755505Y-183570535D02*
X140755505Y-183380059D01*
X140803125Y-183284821D01*
X140850744Y-183237202D01*
X140993601Y-183141964D01*
X141184077Y-183094345D01*
X141565029Y-183094345D01*
X141660267Y-183141964D01*
X141707886Y-183189583D01*
X141755505Y-183284821D01*
X141755505Y-183475297D01*
X141707886Y-183570535D01*
X141660267Y-183618154D01*
X141565029Y-183665773D01*
X141326934Y-183665773D01*
X141231696Y-183618154D01*
X141184077Y-183570535D01*
X141136458Y-183475297D01*
X141136458Y-183284821D01*
X141184077Y-183189583D01*
X141231696Y-183141964D01*
X141326934Y-183094345D01*
X141755505Y-184618154D02*
X141755505Y-184046726D01*
X141755505Y-184332440D02*
X140755505Y-184332440D01*
X140898363Y-184237202D01*
X140993601Y-184141964D01*
X141041220Y-184046726D01*
%TO.C,D62*%
X222718005Y-182141964D02*
X221718005Y-182141964D01*
X221718005Y-182380059D01*
X221765625Y-182522916D01*
X221860863Y-182618154D01*
X221956101Y-182665773D01*
X222146577Y-182713392D01*
X222289434Y-182713392D01*
X222479910Y-182665773D01*
X222575148Y-182618154D01*
X222670386Y-182522916D01*
X222718005Y-182380059D01*
X222718005Y-182141964D01*
X221718005Y-183570535D02*
X221718005Y-183380059D01*
X221765625Y-183284821D01*
X221813244Y-183237202D01*
X221956101Y-183141964D01*
X222146577Y-183094345D01*
X222527529Y-183094345D01*
X222622767Y-183141964D01*
X222670386Y-183189583D01*
X222718005Y-183284821D01*
X222718005Y-183475297D01*
X222670386Y-183570535D01*
X222622767Y-183618154D01*
X222527529Y-183665773D01*
X222289434Y-183665773D01*
X222194196Y-183618154D01*
X222146577Y-183570535D01*
X222098958Y-183475297D01*
X222098958Y-183284821D01*
X222146577Y-183189583D01*
X222194196Y-183141964D01*
X222289434Y-183094345D01*
X221813244Y-184046726D02*
X221765625Y-184094345D01*
X221718005Y-184189583D01*
X221718005Y-184427678D01*
X221765625Y-184522916D01*
X221813244Y-184570535D01*
X221908482Y-184618154D01*
X222003720Y-184618154D01*
X222146577Y-184570535D01*
X222718005Y-183999107D01*
X222718005Y-184618154D01*
%TO.C,D63*%
X303680505Y-182141964D02*
X302680505Y-182141964D01*
X302680505Y-182380059D01*
X302728125Y-182522916D01*
X302823363Y-182618154D01*
X302918601Y-182665773D01*
X303109077Y-182713392D01*
X303251934Y-182713392D01*
X303442410Y-182665773D01*
X303537648Y-182618154D01*
X303632886Y-182522916D01*
X303680505Y-182380059D01*
X303680505Y-182141964D01*
X302680505Y-183570535D02*
X302680505Y-183380059D01*
X302728125Y-183284821D01*
X302775744Y-183237202D01*
X302918601Y-183141964D01*
X303109077Y-183094345D01*
X303490029Y-183094345D01*
X303585267Y-183141964D01*
X303632886Y-183189583D01*
X303680505Y-183284821D01*
X303680505Y-183475297D01*
X303632886Y-183570535D01*
X303585267Y-183618154D01*
X303490029Y-183665773D01*
X303251934Y-183665773D01*
X303156696Y-183618154D01*
X303109077Y-183570535D01*
X303061458Y-183475297D01*
X303061458Y-183284821D01*
X303109077Y-183189583D01*
X303156696Y-183141964D01*
X303251934Y-183094345D01*
X302680505Y-183999107D02*
X302680505Y-184618154D01*
X303061458Y-184284821D01*
X303061458Y-184427678D01*
X303109077Y-184522916D01*
X303156696Y-184570535D01*
X303251934Y-184618154D01*
X303490029Y-184618154D01*
X303585267Y-184570535D01*
X303632886Y-184522916D01*
X303680505Y-184427678D01*
X303680505Y-184141964D01*
X303632886Y-184046726D01*
X303585267Y-183999107D01*
%TO.C,D64*%
X337018005Y-182141964D02*
X336018005Y-182141964D01*
X336018005Y-182380059D01*
X336065625Y-182522916D01*
X336160863Y-182618154D01*
X336256101Y-182665773D01*
X336446577Y-182713392D01*
X336589434Y-182713392D01*
X336779910Y-182665773D01*
X336875148Y-182618154D01*
X336970386Y-182522916D01*
X337018005Y-182380059D01*
X337018005Y-182141964D01*
X336018005Y-183570535D02*
X336018005Y-183380059D01*
X336065625Y-183284821D01*
X336113244Y-183237202D01*
X336256101Y-183141964D01*
X336446577Y-183094345D01*
X336827529Y-183094345D01*
X336922767Y-183141964D01*
X336970386Y-183189583D01*
X337018005Y-183284821D01*
X337018005Y-183475297D01*
X336970386Y-183570535D01*
X336922767Y-183618154D01*
X336827529Y-183665773D01*
X336589434Y-183665773D01*
X336494196Y-183618154D01*
X336446577Y-183570535D01*
X336398958Y-183475297D01*
X336398958Y-183284821D01*
X336446577Y-183189583D01*
X336494196Y-183141964D01*
X336589434Y-183094345D01*
X336351339Y-184522916D02*
X337018005Y-184522916D01*
X335970386Y-184284821D02*
X336684672Y-184046726D01*
X336684672Y-184665773D01*
%TO.C,D65*%
X356068005Y-182141964D02*
X355068005Y-182141964D01*
X355068005Y-182380059D01*
X355115625Y-182522916D01*
X355210863Y-182618154D01*
X355306101Y-182665773D01*
X355496577Y-182713392D01*
X355639434Y-182713392D01*
X355829910Y-182665773D01*
X355925148Y-182618154D01*
X356020386Y-182522916D01*
X356068005Y-182380059D01*
X356068005Y-182141964D01*
X355068005Y-183570535D02*
X355068005Y-183380059D01*
X355115625Y-183284821D01*
X355163244Y-183237202D01*
X355306101Y-183141964D01*
X355496577Y-183094345D01*
X355877529Y-183094345D01*
X355972767Y-183141964D01*
X356020386Y-183189583D01*
X356068005Y-183284821D01*
X356068005Y-183475297D01*
X356020386Y-183570535D01*
X355972767Y-183618154D01*
X355877529Y-183665773D01*
X355639434Y-183665773D01*
X355544196Y-183618154D01*
X355496577Y-183570535D01*
X355448958Y-183475297D01*
X355448958Y-183284821D01*
X355496577Y-183189583D01*
X355544196Y-183141964D01*
X355639434Y-183094345D01*
X355068005Y-184570535D02*
X355068005Y-184094345D01*
X355544196Y-184046726D01*
X355496577Y-184094345D01*
X355448958Y-184189583D01*
X355448958Y-184427678D01*
X355496577Y-184522916D01*
X355544196Y-184570535D01*
X355639434Y-184618154D01*
X355877529Y-184618154D01*
X355972767Y-184570535D01*
X356020386Y-184522916D01*
X356068005Y-184427678D01*
X356068005Y-184189583D01*
X356020386Y-184094345D01*
X355972767Y-184046726D01*
%TO.C,D66*%
X375118005Y-182141964D02*
X374118005Y-182141964D01*
X374118005Y-182380059D01*
X374165625Y-182522916D01*
X374260863Y-182618154D01*
X374356101Y-182665773D01*
X374546577Y-182713392D01*
X374689434Y-182713392D01*
X374879910Y-182665773D01*
X374975148Y-182618154D01*
X375070386Y-182522916D01*
X375118005Y-182380059D01*
X375118005Y-182141964D01*
X374118005Y-183570535D02*
X374118005Y-183380059D01*
X374165625Y-183284821D01*
X374213244Y-183237202D01*
X374356101Y-183141964D01*
X374546577Y-183094345D01*
X374927529Y-183094345D01*
X375022767Y-183141964D01*
X375070386Y-183189583D01*
X375118005Y-183284821D01*
X375118005Y-183475297D01*
X375070386Y-183570535D01*
X375022767Y-183618154D01*
X374927529Y-183665773D01*
X374689434Y-183665773D01*
X374594196Y-183618154D01*
X374546577Y-183570535D01*
X374498958Y-183475297D01*
X374498958Y-183284821D01*
X374546577Y-183189583D01*
X374594196Y-183141964D01*
X374689434Y-183094345D01*
X374118005Y-184522916D02*
X374118005Y-184332440D01*
X374165625Y-184237202D01*
X374213244Y-184189583D01*
X374356101Y-184094345D01*
X374546577Y-184046726D01*
X374927529Y-184046726D01*
X375022767Y-184094345D01*
X375070386Y-184141964D01*
X375118005Y-184237202D01*
X375118005Y-184427678D01*
X375070386Y-184522916D01*
X375022767Y-184570535D01*
X374927529Y-184618154D01*
X374689434Y-184618154D01*
X374594196Y-184570535D01*
X374546577Y-184522916D01*
X374498958Y-184427678D01*
X374498958Y-184237202D01*
X374546577Y-184141964D01*
X374594196Y-184094345D01*
X374689434Y-184046726D01*
%TD*%
M02*
